<svg xmlns="http://www.w3.org/2000/svg" viewBox="0 0 520 256" font-family="'Helvetica Neue', Arial, sans-serif">
  <path d="M128.00,30.00 A98.0,98.0 0 1 1 39.62,85.66" fill="none" stroke="#38cdde" stroke-width="48"/>
  <g transform="translate(164.51,194.74) scale(1.3333)" fill="#0f1e3c"><path d="M12 .297c-6.63 0-12 5.373-12 12 0 5.303 3.438 9.8 8.205 11.385.6.113.82-.258.82-.577 0-.285-.01-1.04-.015-2.04-3.338.724-4.042-1.61-4.042-1.61C4.422 18.07 3.633 17.7 3.633 17.7c-1.087-.744.084-.729.084-.729 1.205.084 1.838 1.236 1.838 1.236 1.07 1.835 2.809 1.305 3.495.998.108-.776.417-1.305.76-1.605-2.665-.3-5.466-1.332-5.466-5.93 0-1.31.465-2.38 1.235-3.22-.135-.303-.54-1.523.105-3.176 0 0 1.005-.322 3.3 1.23.96-.267 1.98-.399 3-.405 1.02.006 2.04.138 3 .405 2.28-1.552 3.285-1.23 3.285-1.23.645 1.653.24 2.873.12 3.176.765.84 1.23 1.91 1.23 3.22 0 4.61-2.805 5.625-5.475 5.92.42.36.81 1.096.81 2.22 0 1.606-.015 2.896-.015 3.286 0 .315.21.69.825.57C20.565 22.092 24 17.592 24 12.297c0-6.627-5.373-12-12-12"/></g>
  <path d="M39.33,86.27 A98.0,98.0 0 0 1 81.39,41.79" fill="none" stroke="#f57ec0" stroke-width="48"/>
  <g transform="translate(40.56,44.91) scale(1.3333)" fill="#0f1e3c"><path d="M23.8346 11.7033l-1.0073-.6236a13.7268 13.7268 0 00-.0283-.2936l.8656-.8069a.3483.3483 0 00-.1154-.578l-1.1066-.414a8.4958 8.4958 0 00-.087-.2856l.6904-.9587a.3462.3462 0 00-.2257-.5446l-1.1663-.1894a9.3574 9.3574 0 00-.1407-.2622l.49-1.0761a.3437.3437 0 00-.0274-.3361.3486.3486 0 00-.3006-.154l-1.1845.0416a6.7444 6.7444 0 00-.1873-.2268l.2723-1.153a.3472.3472 0 00-.417-.4172l-1.1532.2724a14.0183 14.0183 0 00-.2278-.1873l.0415-1.1845a.3442.3442 0 00-.49-.328l-1.076.491c-.0872-.0476-.1742-.0952-.2623-.1407l-.1903-1.1673A.3483.3483 0 0016.256.955l-.9597.6905a8.4867 8.4867 0 00-.2855-.086l-.414-1.1066a.3483.3483 0 00-.5781-.1154l-.8069.8666a9.2936 9.2936 0 00-.2936-.0284L12.2946.1683a.3462.3462 0 00-.5892 0l-.6236 1.0073a13.7383 13.7383 0 00-.2936.0284L9.9803.3374a.3462.3462 0 00-.578.1154l-.4141 1.1065c-.0962.0274-.1903.0567-.2855.086L7.744.955a.3483.3483 0 00-.5447.2258L7.009 2.348a9.3574 9.3574 0 00-.2622.1407l-1.0762-.491a.3462.3462 0 00-.49.328l.0416 1.1845a7.9826 7.9826 0 00-.2278.1873L3.8413 3.425a.3472.3472 0 00-.4171.4171l.2713 1.1531c-.0628.075-.1255.1509-.1863.2268l-1.1845-.0415a.3462.3462 0 00-.328.49l.491 1.0761a9.167 9.167 0 00-.1407.2622l-1.1662.1894a.3483.3483 0 00-.2258.5446l.6904.9587a13.303 13.303 0 00-.087.2855l-1.1065.414a.3483.3483 0 00-.1155.5781l.8656.807a9.2936 9.2936 0 00-.0283.2935l-1.0073.6236a.3442.3442 0 000 .5892l1.0073.6236c.008.0982.0182.1964.0283.2936l-.8656.8079a.3462.3462 0 00.1155.578l1.1065.4141c.0273.0962.0567.1914.087.2855l-.6904.9587a.3452.3452 0 00.2268.5447l1.1662.1893c.0456.088.0922.1751.1408.2622l-.491 1.0762a.3462.3462 0 00.328.49l1.1834-.0415c.0618.0769.1235.1528.1873.2277l-.2713 1.1541a.3462.3462 0 00.4171.4161l1.153-.2713c.075.0638.151.1255.2279.1863l-.0415 1.1845a.3442.3442 0 00.49.327l1.0761-.49c.087.0486.1741.0951.2622.1407l.1903 1.1662a.3483.3483 0 00.5447.2268l.9587-.6904a9.299 9.299 0 00.2855.087l.414 1.1066a.3452.3452 0 00.5781.1154l.8079-.8656c.0972.0111.1954.0203.2936.0294l.6236 1.0073a.3472.3472 0 00.5892 0l.6236-1.0073c.0982-.0091.1964-.0183.2936-.0294l.8069.8656a.3483.3483 0 00.578-.1154l.4141-1.1066a8.4626 8.4626 0 00.2855-.087l.9587.6904a.3452.3452 0 00.5447-.2268l.1903-1.1662c.088-.0456.1751-.0931.2622-.1407l1.0762.49a.3472.3472 0 00.49-.327l-.0415-1.1845a6.7267 6.7267 0 00.2267-.1863l1.1531.2713a.3472.3472 0 00.4171-.416l-.2713-1.1542c.0628-.0749.1255-.1508.1863-.2278l1.1845.0415a.3442.3442 0 00.328-.49l-.49-1.076c.0475-.0872.0951-.1742.1407-.2623l1.1662-.1893a.3483.3483 0 00.2258-.5447l-.6904-.9587.087-.2855 1.1066-.414a.3462.3462 0 00.1154-.5781l-.8656-.8079c.0101-.0972.0202-.1954.0283-.2936l1.0073-.6236a.3442.3442 0 000-.5892zm-6.7413 8.3551a.7138.7138 0 01.2986-1.396.714.714 0 11-.2997 1.396zm-.3422-2.3142a.649.649 0 00-.7715.5l-.3573 1.6685c-1.1035.501-2.3285.7795-3.6193.7795a8.7368 8.7368 0 01-3.6951-.814l-.3574-1.6684a.648.648 0 00-.7714-.499l-1.473.3158a8.7216 8.7216 0 01-.7613-.898h7.1676c.081 0 .1356-.0141.1356-.088v-2.536c0-.074-.0536-.0881-.1356-.0881h-2.0966v-1.6077h2.2677c.2065 0 1.1065.0587 1.394 1.2088.0901.3533.2875 1.5044.4232 1.8729.1346.413.6833 1.2381 1.2685 1.2381h3.5716a.7492.7492 0 00.1296-.0131 8.7874 8.7874 0 01-.8119.9526zM6.8369 20.024a.714.714 0 11-.2997-1.396.714.714 0 01.2997 1.396zM4.1177 8.9972a.7137.7137 0 11-1.304.5791.7137.7137 0 011.304-.579zm-.8352 1.9813l1.5347-.6824a.65.65 0 00.33-.8585l-.3158-.7147h1.2432v5.6025H3.5669a8.7753 8.7753 0 01-.2834-3.348zm6.7343-.5437V8.7836h2.9601c.153 0 1.0792.1772 1.0792.8697 0 .575-.7107.7815-1.2948.7815zm10.7574 1.4862c0 .2187-.008.4363-.0243.651h-.9c-.09 0-.1265.0586-.1265.1477v.413c0 .973-.5487 1.1846-1.0296 1.2382-.4576.0517-.9648-.1913-1.0275-.4717-.2704-1.5186-.7198-1.8436-1.4305-2.4034.8817-.5599 1.799-1.386 1.799-2.4915 0-1.1936-.819-1.9458-1.3769-2.3153-.7825-.5163-1.6491-.6195-1.883-.6195H5.4682a8.7651 8.7651 0 014.907-2.7699l1.0974 1.151a.648.648 0 00.9182.0213l1.227-1.1743a8.7753 8.7753 0 016.0044 4.2762l-.8403 1.8982a.652.652 0 00.33.8585l1.6178.7188c.0283.2875.0425.577.0425.8717zm-9.3006-9.5993a.7128.7128 0 11.984 1.0316.7137.7137 0 01-.984-1.0316zm8.3389 6.71a.7107.7107 0 01.9395-.3625.7137.7137 0 11-.9405.3635z"/></g>
  <path d="M80.79,42.12 A98.0,98.0 0 0 1 122.53,30.15" fill="none" stroke="#a06ee8" stroke-width="48"/>
  <g transform="translate(84.66,17.89) scale(1.3333)" fill="#0f1e3c"><path d="M7.938 0a.214.214 0 0 0-.206.156c-.316 1.104.179 2.15.838 2.935.153.181.313.347.476.501a2.039 2.039 0 0 0-.665.02c-1.184.233-2.193.985-2.74 2.532a3.893 3.893 0 0 0-.2 1.466 1.565 1.565 0 0 0-1.156 1.504 1.59 1.59 0 0 0 1.227 1.541l.026 12.046c0 .195.1.377.264.482a.214.214 0 0 0 .008.005c.537.31 2.047.812 5.21.812 3.238 0 4.7-.678 5.181-1.04a.214.214 0 0 0 .008-.007.571.571 0 0 0 .206-.439c.002-.344.002-1.136.002-1.604a.143.143 0 0 1 .147-.144c.397.006.869.006 1.318.005a1.826 1.826 0 0 0 1.832-1.825v-5.804a1.826 1.826 0 0 0-1.825-1.826H16.56a.14.14 0 0 1-.143-.144V10.6h.007v-.001a1.573 1.573 0 0 0 1.356-1.556c0-.816-.627-1.489-1.424-1.563-.025-1.438-.437-2.126-.736-2.58a.214.214 0 0 0-.005-.007c-.364-.51-1.193-1.282-2.275-1.316-.503-.016-.842.124-1.125.254-.217.1-.42.177-.67.22.002-1.286.945-1.981.945-1.981a.214.214 0 0 0 .05-.298s-.087-.122-.21-.26c-.121-.136-.269-.294-.47-.378a.214.214 0 0 0-.079-.017.214.214 0 0 0-.145.055 4.308 4.308 0 0 0-.875 1.101 3.42 3.42 0 0 0-.133.273 3.497 3.497 0 0 0-.381-.846C9.794.978 9.063.436 8.017.016A.214.214 0 0 0 7.939 0zm.156.524c.85.378 1.43.83 1.79 1.403.274.438.426.962.484 1.584a3.07 3.07 0 0 0-.012.462 6.897 6.897 0 0 1-.168-.052 5.487 5.487 0 0 1-1.29-1.106c-.551-.657-.935-1.46-.804-2.291zM11.8 1.618c.07.054.141.101.212.18.034.039.032.04.058.073-.332.308-1.07 1.144-.952 2.453a.214.214 0 0 0 .222.195c.469-.017.782-.172 1.056-.299.273-.126.508-.228.931-.214.875.027 1.639.715 1.939 1.134.295.449.65 1 .663 2.36a1.66 1.66 0 0 0-.41.142 1.938 1.938 0 0 0-1.77-1.16 1.94 1.94 0 0 0-1.87 1.448 1.783 1.783 0 0 0-1.356-.64c-.484 0-.91.205-1.233.517a1.873 1.873 0 0 0-1.85-1.625c-.649 0-1.218.335-1.552.84a3.1 3.1 0 0 1 .157-.735c.51-1.437 1.355-2.045 2.42-2.254.367-.073.664-.011.99.095.325.106.671.262 1.094.342a.214.214 0 0 0 .252-.245c-.112-.67.073-1.266.336-1.744a3.71 3.71 0 0 1 .663-.863zM7.44 6.611a1.442 1.442 0 0 1 1.363 1.925.214.214 0 0 0 .168.283h.005a.214.214 0 0 0 .238-.146 1.373 1.373 0 0 1 2.613-.01.214.214 0 0 0 .417-.09 1.509 1.509 0 0 1 1.504-1.664c.678 0 1.249.445 1.442 1.056a.214.214 0 0 0 .259.143l.15-.04a.214.214 0 0 0 .051-.02 1.139 1.139 0 0 1 1.702.995 1.14 1.14 0 0 1-.985 1.131.214.214 0 0 0-.001 0 2.215 2.215 0 0 0-.485.126 10.65 10.65 0 0 1-1.176.365.214.214 0 0 0-.162.186 1.276 1.276 0 0 1-.146.478 2.07 2.07 0 0 0-.239 1.111l.001.151a.438.438 0 0 1-.16.36.665.665 0 0 1-.43.14.586.586 0 0 1-.588-.59.803.803 0 0 0-.38-.681.214.214 0 0 0-.002-.002c-.24-.145-.43-.37-.532-.636a.214.214 0 0 0-.207-.138 19.469 19.469 0 0 1-5.37-.6l-.003-.002a9.007 9.007 0 0 0-.838-.194h.003a1.16 1.16 0 0 1-.937-1.134c0-.619.488-1.118 1.101-1.14a.214.214 0 0 0 .204-.176 1.443 1.443 0 0 1 1.42-1.187zm8.549 4.106v.455c0 .314.259.573.572.573h1.329a1.397 1.397 0 0 1 1.397 1.397v5.804a1.396 1.396 0 0 1-1.402 1.396.214.214 0 0 0-.002 0c-.448.002-.918 0-1.31-.005a.573.573 0 0 0-.584.573c0 .468 0 1.262-.002 1.603a.214.214 0 0 0 0 .001c0 .042-.019.08-.05.107-.346.26-1.75.95-4.915.95-3.107 0-4.587-.52-4.99-.752a.143.143 0 0 1-.065-.118l-.025-11.955c.145.033.288.07.431.11a.214.214 0 0 0 .003 0c.115.031.246.064.383.097v10.37c0 .129.069.247.18.31.453.217 1.767.732 4.071.732 2.32 0 3.595-.626 4.022-.884a.357.357 0 0 0 .164-.3l.001-10.21c.267-.075.531-.158.792-.254zm-7.99.894a.493.493 0 0 1 .494.493v8.578a.493.493 0 0 1-.493.493.493.493 0 0 1-.494-.493v-8.578A.493.493 0 0 1 8 11.611zm8.652 1.14a.663.663 0 0 0-.662.662v5.208a.663.663 0 0 0 .662.662h1.14a.663.663 0 0 0 .662-.662v-5.209a.663.663 0 0 0-.662-.662zm0 .428h1.14a.233.233 0 0 1 .233.233v5.21a.233.233 0 0 1-.233.232h-1.14a.233.233 0 0 1-.233-.233v-5.209a.233.233 0 0 1 .233-.233z"/></g>
  <path d="M121.85,30.19 A98.0,98.0 0 0 1 128.68,30.00" fill="none" stroke="#f59a4d" stroke-width="48"/>
  <line x1="125.68" y1="54.04" x2="126.18" y2="70.03" stroke="#f59a4d" stroke-width="2.5" stroke-linecap="round"/>
  <g transform="translate(110.68,70.02) scale(1.3333)" fill="#f59a4d"><path d="M13.983 11.078h2.119a.186.186 0 00.186-.185V9.006a.186.186 0 00-.186-.186h-2.119a.185.185 0 00-.185.185v1.888c0 .102.083.185.185.185m-2.954-5.43h2.118a.186.186 0 00.186-.186V3.574a.186.186 0 00-.186-.185h-2.118a.185.185 0 00-.185.185v1.888c0 .102.082.185.185.185m0 2.716h2.118a.187.187 0 00.186-.186V6.29a.186.186 0 00-.186-.185h-2.118a.185.185 0 00-.185.185v1.887c0 .102.082.185.185.186m-2.93 0h2.12a.186.186 0 00.184-.186V6.29a.185.185 0 00-.185-.185H8.1a.185.185 0 00-.185.185v1.887c0 .102.083.185.185.186m-2.964 0h2.119a.186.186 0 00.185-.186V6.29a.185.185 0 00-.185-.185H5.136a.186.186 0 00-.186.185v1.887c0 .102.084.185.186.186m5.893 2.715h2.118a.186.186 0 00.186-.185V9.006a.186.186 0 00-.186-.186h-2.118a.185.185 0 00-.185.185v1.888c0 .102.082.185.185.185m-2.93 0h2.12a.185.185 0 00.184-.185V9.006a.185.185 0 00-.184-.186h-2.12a.185.185 0 00-.184.185v1.888c0 .102.083.185.185.185m-2.964 0h2.119a.185.185 0 00.185-.185V9.006a.185.185 0 00-.184-.186h-2.12a.186.186 0 00-.186.186v1.887c0 .102.084.185.186.185m-2.92 0h2.12a.185.185 0 00.184-.185V9.006a.185.185 0 00-.184-.186h-2.12a.185.185 0 00-.184.185v1.888c0 .102.082.185.185.185M23.763 9.89c-.065-.051-.672-.51-1.954-.51-.338.001-.676.03-1.01.087-.248-1.7-1.653-2.53-1.716-2.566l-.344-.199-.226.327c-.284.438-.49.922-.612 1.43-.23.97-.09 1.882.403 2.661-.595.332-1.55.413-1.744.42H.751a.751.751 0 00-.75.748 11.376 11.376 0 00.692 4.062c.545 1.428 1.355 2.48 2.41 3.124 1.18.723 3.1 1.137 5.275 1.137.983.003 1.963-.086 2.93-.266a12.248 12.248 0 003.823-1.389c.98-.567 1.86-1.288 2.61-2.136 1.252-1.418 1.998-2.997 2.553-4.4h.221c1.372 0 2.215-.549 2.68-1.009.309-.293.55-.65.707-1.046l.098-.288Z"/></g>
  <rect x="306" y="48" width="24" height="24" rx="7" fill="#38cdde"/>
  <text x="346" y="68" fill="#cccccc" font-size="22">GitHub</text>
  <text x="514" y="68" fill="#ffffff" font-size="22" font-weight="700" text-anchor="end">82%</text>
  <rect x="306" y="88" width="24" height="24" rx="7" fill="#f57ec0"/>
  <text x="346" y="108" fill="#cccccc" font-size="22">crates.io</text>
  <text x="514" y="108" fill="#ffffff" font-size="22" font-weight="700" text-anchor="end">10%</text>
  <rect x="306" y="128" width="24" height="24" rx="7" fill="#a06ee8"/>
  <text x="346" y="148" fill="#cccccc" font-size="22">Homebrew</text>
  <text x="514" y="148" fill="#ffffff" font-size="22" font-weight="700" text-anchor="end">7%</text>
  <rect x="306" y="168" width="24" height="24" rx="7" fill="#f59a4d"/>
  <text x="346" y="188" fill="#cccccc" font-size="22">Docker</text>
  <text x="514" y="188" fill="#ffffff" font-size="22" font-weight="700" text-anchor="end">1%</text>
</svg>
