<svg xmlns="http://www.w3.org/2000/svg" xmlns:xlink="http://www.w3.org/1999/xlink" width="250" height="54" version="1.1" viewBox="0 0 250 54"><g fill="none" fill-rule="evenodd" stroke="none" stroke-width="1"><g><g transform="translate(-130.000000, -73.000000) translate(130.000000, 73.000000)"><rect width="249" height="53" x=".5" y=".5" fill="#FFF" stroke="#FF6154" stroke-width="1" rx="10"/><text fill="#FF6154" font-family="Helvetica-Bold, Helvetica" font-size="9" font-weight="bold"><tspan x="53" y="20">PRODUCT HUNT</tspan></text><text fill="#FF6154" font-family="Helvetica-Bold, Helvetica" font-size="16" font-weight="bold"><tspan x="52" y="40">#5 Product of the Day</tspan></text><g transform="translate(17.000000, 13.000000)"><path fill="#DE7818" fill-rule="nonzero" d="M4.33,16.364 L0.328,24.9 C0.202,25.158 0.335,25.32 0.755,25.24 L4.013,24.532 C4.07755234,24.5094173 4.14861896,24.5149617 4.20888789,24.5472826 C4.26915683,24.5796035 4.31309537,24.6357337 4.33,24.702 L5.797,27.709 C5.937,28.033 6.099,28.099 6.225,27.842 L10.485,18.908 L4.33,16.364 Z M16.67,16.364 L20.672,24.9 C20.805,25.158 20.665,25.32 20.245,25.24 L16.987,24.532 C16.9224353,24.5100506 16.8516562,24.5158869 16.7915589,24.5481157 C16.7314616,24.5803445 16.687439,24.6360738 16.67,24.702 L15.203,27.709 C15.063,28.033 14.908,28.099 14.775,27.842 L10.515,18.908 L16.67,16.364 Z"/><path fill="#B35454" d="M9.298,21.392 C9.298,21.399 9.284,21.392 9.269,21.392 C7.03578049,21.1442528 4.94208026,20.1826237 3.299,18.65 C3.291,18.642 3.269,18.635 3.276,18.627 L3.46,18.237 C3.468,18.222 3.482,18.259 3.49,18.267 C5.067,19.733 7.257,20.655 9.497,20.927 C9.505,20.927 9.52,20.927 9.52,20.935 L9.298,21.392 Z"/><circle cx="10.5" cy="10.489" r="10.489" fill="#A54E24"/><circle cx="10.5" cy="10.489" r="9.045" fill="#A76236"/><circle cx="10.75" cy="10.75" r="8.75" fill="#BD6E3C"/><path fill="#FFC07A" d="M10.605,14.984 C12.644,14.984 13.991,13.736 13.991,11.907 C13.991,10.261 12.843,9.071 11.238,9.071 C10.37,9.071 9.773,9.411 9.445,9.939 L9.333,9.939 L9.491,7.976 L13.458,7.976 L13.458,6.3 L7.833,6.3 L7.435,11.251 L9.327,11.251 C9.597,10.823 10.019,10.554 10.617,10.554 C11.402,10.554 11.964,11.116 11.964,11.96 C11.964,12.786 11.407,13.325 10.622,13.325 C9.913,13.325 9.351,12.915 9.252,12.295 L7.3,12.295 C7.33,13.829 8.642,14.984 10.605,14.984 Z"/><path fill="#FFF" fill-opacity=".2" d="M12.97,3.089 C16.3260745,3.89113363 18.7213186,6.85251327 18.8041673,10.3021205 C18.8870161,13.7517278 16.6366978,16.8246793 13.323,17.787 C15.358,16.232 16.707,13.578 16.707,10.563 C16.707,7.379 15.203,4.6 12.969,3.089 L12.97,3.089 Z" opacity=".618"/><path fill="#B35454" d="M11.702,21.392 C11.709,21.399 11.724,21.392 11.731,21.392 C14.024,21.104 16.131,20.182 17.717,18.664 C17.724,18.657 17.746,18.65 17.739,18.642 L17.554,18.252 C17.547,18.237 17.532,18.274 17.524,18.281 C15.947,19.748 13.751,20.655 11.503,20.927 C11.495,20.927 11.48,20.927 11.48,20.935 L11.702,21.392 Z"/></g></g></g></g></svg>