<?xml version="1.0" encoding="UTF-8" standalone="no"?>
<svg
   shape-rendering="geometricPrecision"
   text-rendering="geometricPrecision"
   image-rendering="optimizeQuality"
   fill-rule="evenodd"
   clip-rule="evenodd"
   viewBox="0 0 262144 165258.52"
   version="1.1"
   id="svg1"
   width="262144"
   height="165258.52"
   xmlns="http://www.w3.org/2000/svg"
   xmlns:svg="http://www.w3.org/2000/svg">
  <defs
     id="defs1" />
  <path
     d="M 512,0 V 339.71 H 336.77 v 34.2 h 51.21 v 32.61 H 122.93 v -32.61 h 54.85 v -34.2 H 0 V 0 Z M 60.73,251.43 H 403.58 V 266.5 H 60.73 Z m 0,-40.23 H 279.5 v 15.07 H 60.73 Z m 334.59,-84.15 58.05,0.2 c -0.05,15.9 -6.28,31.12 -17.31,42.28 a 59.295,59.295 0 0 1 -8.49,7.1 z m -5.95,-11.83 -3.1,-63.73 c -0.06,-1.26 0.89,-2.33 2.11,-2.39 0.36,-0.02 0.78,-0.04 1.25,-0.05 0.39,-0.02 0.81,-0.02 1.25,-0.03 17.05,-0.19 32.69,6.45 44.38,17.5 11.69,11.05 19.42,26.52 20.64,43.99 0.08,1.26 -0.84,2.35 -2.07,2.44 l -62.08,4.56 c -1.22,0.08 -2.29,-0.86 -2.37,-2.12 -0.01,-0.06 -0.01,-0.11 -0.01,-0.17 z m 1.45,-61.64 2.88,59.2 57.56,-4.22 C 449.64,93.23 442.62,79.68 432.25,69.88 421.36,59.58 406.79,53.4 390.92,53.58 Z m -8.4,70.74 31.12,55.36 c -9.46,5.61 -20.2,8.57 -31.12,8.57 -34.38,0 -62.25,-28.63 -62.25,-63.93 0,-31.73 22.65,-58.65 53.21,-63.26 z M 204.76,55.94 199.8,49.63 c -0.78,-1.09 -1.02,-2.12 -0.7,-3.07 0.84,-2.56 3.86,-2.31 5.95,-2.17 5.94,0.43 19.95,0.56 23.01,0.68 2.24,0.16 3.55,1.84 3.17,4.05 -0.62,3.09 -3.47,17.97 -4.49,23.62 -0.36,1.96 -0.95,4.51 -3.42,4.7 -1,0.08 -1.94,-0.4 -2.82,-1.41 l -4.95,-6.32 -2.3,-2.92 -30.93,20.03 c -0.39,7.79 -6.83,13.99 -14.72,13.99 -8.14,0 -14.74,-6.6 -14.74,-14.74 0,-0.33 0.01,-0.66 0.03,-0.98 l -17.1,-12.35 a 14.583,14.583 0 0 1 -8.41,2.64 c -4.26,0 -8.09,-1.81 -10.78,-4.7 L 87.93,86.05 c 0.06,0.5 0.08,1.01 0.08,1.53 0,8.14 -6.6,14.74 -14.73,14.74 -8.14,0 -14.74,-6.6 -14.74,-14.74 0,-8.14 6.6,-14.74 14.74,-14.74 2.95,0 5.69,0.87 8,2.36 l 31.55,-16.91 c 1.12,-7.02 7.21,-12.39 14.55,-12.39 8.14,0 14.74,6.6 14.74,14.74 0,0.32 -0.01,0.65 -0.03,0.98 l 17.1,12.35 a 14.68,14.68 0 0 1 8.41,-2.64 c 3.7,0 7.08,1.37 9.67,3.62 l 28.11,-18.21 z m 6.78,38.03 h 20.32 c 1.17,0 2.13,0.96 2.13,2.13 v 78.95 c 0,1.17 -0.96,2.13 -2.13,2.13 h -20.32 c -1.16,0 -2.13,-0.96 -2.13,-2.13 V 96.1 c 0,-1.17 0.96,-2.13 2.13,-2.13 z m -49.47,27.06 h 20.32 c 1.17,0 2.13,0.96 2.13,2.13 v 51.89 c 0,1.17 -0.96,2.13 -2.13,2.13 h -20.32 c -1.17,0 -2.13,-0.96 -2.13,-2.13 v -51.89 c 0,-1.17 0.96,-2.13 2.13,-2.13 z M 112.59,93.97 h 20.33 c 1.17,0 2.12,0.96 2.12,2.13 v 78.95 c 0,1.17 -0.96,2.13 -2.12,2.13 h -20.33 c -1.16,0 -2.12,-0.96 -2.12,-2.13 V 96.1 c 0,-1.17 0.95,-2.13 2.12,-2.13 z m -49.48,31.42 h 20.33 c 1.17,0 2.12,0.97 2.12,2.13 v 47.53 c 0,1.17 -0.96,2.13 -2.12,2.13 H 63.11 c -1.16,0 -2.12,-0.96 -2.12,-2.13 v -47.53 c 0,-1.17 0.95,-2.13 2.12,-2.13 z M 15.28,296.18 H 496.65 V 15.28 H 15.28 Z"
     id="path1"
     style="fill:#a0e8f8;fill-opacity:1" />
</svg>
