<?xml version="1.0" encoding="UTF-8" standalone="no"?>
<svg
   version="1.1"
   id="Layer_1"
   x="0px"
   y="0px"
   width="1078.733"
   height="1078.7271"
   viewBox="0 0 1078.733 1078.7271"
   enable-background="new 0 0 1200 1200"
   xml:space="preserve"
   xmlns="http://www.w3.org/2000/svg"
   xmlns:svg="http://www.w3.org/2000/svg"><defs
   id="defs3" />
<g
   id="g3"
   transform="translate(-60.632999,-50)">
	
	<path
   fill="#E52226"
   d="m 1139.366,589.361 c 0,297.905 -241.467,539.366 -539.372,539.366 C 302.106,1128.727 60.633,887.266 60.633,589.361 60.634,291.472 302.106,50 599.994,50 897.9,50 1139.366,291.472 1139.366,589.361 Z"
   id="path2"
   style="fill:#ea4335;fill-opacity:1" />
	<path
   fill="#ffffff"
   d="m 878.02206,319.3635 h -556.1289 c -49.47223,0.13006 -89.55125,40.10153 -89.55125,89.69006 V 769.6947 c 0,49.70734 40.08027,89.55124 89.55125,89.6688 h 556.12765 c 49.46597,-0.11756 89.63628,-40.10153 89.63628,-89.6688 V 409.05481 c 10e-4,-49.58978 -40.16905,-89.69131 -89.63503,-89.69131 z M 857.79871,388.31122 604.10332,568.44044 365.90529,388.31122 Z m 20.22335,402.12457 h -556.1289 c -11.32913,0 -20.62354,-9.11432 -20.62354,-20.74109 V 425.74773 L 602.77519,653.81471 898.65435,443.57119 v 326.12476 c 0,11.62552 -9.1781,20.73984 -20.63229,20.73984 z"
   id="path3"
   style="stroke-width:1.2506" />
</g>
</svg>
