<svg xmlns="http://www.w3.org/2000/svg" xmlns:svg="http://www.w3.org/2000/svg" id="svg1" width="466.978" height="456.195" version="1.1" viewBox="0 0 466.978 456.195"><g id="g1" transform="translate(-0.54508954,-6.0086813)"><path style="fill:#ccc;fill-opacity:1" id="path1" d="m 160.91429,461.98768 c -4.4421,-0.86655 -23.45322,-8.77771 -34.15822,-14.21439 C 70.60186,419.25466 26.243777,365.14678 8.8895433,304 2.8738165,282.80389 0.56697255,264.984 0.54535025,239.54286 0.52760437,218.66277 1.4095911,209.35521 5.123553,191.22932 22.416118,106.83342 87.913915,37.077904 171.33309,14.215246 219.00552,1.1496854 273.53793,3.7971399 318.44835,21.357438 c 54.69313,21.385407 98.69755,61.498028 125.02087,113.963902 12.02811,23.97362 19.30658,48.00882 22.97799,75.87866 1.4415,10.94251 1.43172,45.2085 -0.0162,56.68572 -4.57369,36.2547 -16.55892,69.29719 -35.76207,98.59365 -27.72436,42.2965 -65.32874,73.14259 -111.1261,91.15446 -14.13036,5.5574 -19.18903,5.88405 -23.55454,1.52098 l -2.95975,-2.9581 -0.55396,-41.35549 c -0.59293,-44.26381 -0.8217,-46.58112 -5.67441,-57.47812 -1.20161,-2.69827 -3.86683,-7.02227 -5.92272,-9.60889 l -3.73797,-4.70293 7.48739,-1.04796 c 23.93543,-3.35011 42.58128,-9.9103 58.66952,-20.64177 19.56506,-13.05064 31.62054,-33.30423 37.54443,-63.07583 1.94937,-9.79695 2.79098,-37.29908 1.41114,-46.11347 -2.3525,-15.02773 -9.78733,-31.69077 -19.10626,-42.82122 l -3.67134,-4.38501 2.24751,-7.74015 c 3.9903,-13.74207 2.92652,-33.0127 -2.68636,-48.66429 -1.78116,-4.96679 -2.35509,-5.68619 -5.10111,-6.3941 -8.49607,-2.190225 -32.60765,6.64654 -53.51215,19.61193 -5.20751,3.22979 -7.9949,4.42591 -9.64471,4.13871 -1.27623,-0.22217 -6.49176,-1.28309 -11.59005,-2.3576 -29.16272,-6.14629 -61.09803,-6.14629 -90.26075,0 -5.09829,1.07451 -10.33835,2.13903 -11.64457,2.3656 -1.71201,0.29696 -4.18563,-0.74867 -8.86166,-3.74593 -18.6422,-11.94935 -45.03716,-21.61075 -54.73925,-20.03632 -2.94638,0.47813 -3.15747,0.79227 -5.33958,7.94628 -3.53862,11.60132 -4.43497,17.53223 -4.36488,28.88128 0.052,8.42669 0.51979,12.04549 2.35585,18.22629 l 2.29092,7.712 -3.5193,4.17371 c -9.234298,10.95143 -16.897391,28.11147 -19.242002,43.08882 -1.381812,8.82699 -0.536886,36.33493 1.416116,46.10397 4.683985,23.42959 13.769466,42.06792 26.435156,54.23013 9.51996,9.14153 24.87244,18.01386 39.88643,23.0507 6.52543,2.18913 23.97896,5.89014 32.20059,6.82811 l 5.22917,0.59657 -3.56054,4.50441 c -4.62539,5.85157 -7.9677,13.01153 -9.74251,20.87063 -1.38936,6.15228 -1.52132,6.34698 -5.23315,7.72169 -8.18547,3.03156 -12.46533,3.70323 -23.92213,3.75429 -11.73702,0.0523 -11.96313,0.0141 -18.07329,-3.05192 -7.91273,-3.97056 -14.75553,-10.5733 -21.01957,-20.28215 -9.07335,-14.06311 -22.857335,-23.97088 -35.056298,-25.19808 -7.018395,-0.70604 -12.250843,0.80507 -12.250843,3.53801 0,2.0819 7.34593,9.51815 13.818282,13.98818 2.205659,1.5233 6.191435,5.63759 8.857279,9.14285 4.34773,5.71675 6.538675,9.75015 14.562564,26.80882 4.398816,9.35181 15.453346,17.96094 27.676156,21.55386 2.76572,0.81299 10.78858,1.93965 17.82858,2.50368 10.45772,0.83787 14.43122,0.78487 21.71428,-0.28963 l 8.91429,-1.31515 0.22529,16.04153 c 0.45292,32.24946 0.25194,33.97755 -4.29837,36.95903 -2.4062,1.57661 -7.30077,2.39082 -10.55549,1.7559 z"/></g></svg>