<?xml version="1.0" encoding="UTF-8" standalone="no"?>
<!-- Created with Inkscape (http://www.inkscape.org/) -->

<svg
   version="1.1"
   id="svg1"
   width="546.66669"
   height="164"
   viewBox="0 0 546.66669 164"
   xmlns="http://www.w3.org/2000/svg"
   xmlns:svg="http://www.w3.org/2000/svg">
  <defs
     id="defs1" />
  <g
     id="g1">
    <path
       style="display:inline;fill:#006aa4;fill-opacity:1"
       d="M 59.157591,157 C 48.190849,145.48664 17.132326,109.1648 12.049217,101.90842 -5.4683266,76.901305 -2.3842856,42.524769 19.352144,20.505699 33.150736,6.5276828 49.219147,0.50540558 69.620327,1.665695 c 45.108043,2.565459 72.811453,51.796756 52.261653,92.873379 -4.38168,8.758476 -12.26372,17.514756 -27.21531,30.233896 -3.3,2.80727 -7.287022,6.22721 -8.860048,7.59985 l -2.860049,2.49573 -22.276212,-25.76761 C 48.418444,94.928757 37.505146,81.615822 36.418588,79.516642 c -3.178163,-6.14006 -3.719839,-16.917981 -1.2274,-24.422011 2.317576,-6.977568 9.127315,-14.619593 16.188221,-18.166744 15.058961,-7.565093 34.33039,-0.973229 41.372394,14.151582 7.587027,16.295409 0.72981,39.254706 -10.855681,36.346933 -4.1142,-1.032598 -5.568104,-6.535175 -3.169316,-11.994877 0.990326,-2.254005 1.826152,-6.999589 1.857392,-10.545741 0.05085,-5.772491 -0.463306,-6.92419 -4.910784,-11 -5.569348,-5.103926 -11.699846,-5.986248 -18.208292,-2.6206 -6.261784,3.238094 -8.949418,8.947057 -8.339153,17.713695 0.175078,2.515055 11.226269,16.462106 31.224648,39.406771 l 4.403556,5.05231 10.244308,-9.71898 C 109.1474,90.295619 112.66667,82.649696 112.66667,65.333333 c 0,-10.899747 -0.49012,-13.711941 -3.51355,-20.160014 C 99.802489,25.231256 78.490854,13.667161 57.747221,17.279508 40.469436,20.288304 28.27551,29.497562 20.868334,45.131667 17.123149,53.036518 16.666667,55.303715 16.666667,66 c 0,17.367479 2.083412,20.981792 32.48465,56.35455 26.317155,30.6208 28.098067,33.56149 23.077031,38.10547 C 68.345374,163.97406 64.942532,163.07328 59.157591,157 Z M 190.66667,93.333333 V 56 h 6.66667 c 5.77778,0 6.66667,0.355556 6.66667,2.666667 0,3.323428 0.73157,3.333558 4.88353,0.06763 4.41136,-3.469971 13.68137,-4.748057 19.79752,-2.729546 12.13895,4.006217 18.69575,15.054923 17.74986,29.909884 -0.63658,9.997255 -5.26481,18.086805 -12.89869,22.545235 -6.17082,3.60395 -17.15738,3.47806 -23.50882,-0.26938 -2.66337,-1.57143 -5.1082,-2.85715 -5.43295,-2.85715 -0.32475,0 -0.59045,5.7 -0.59045,12.66667 v 12.66666 h -6.66667 -6.66667 z m 33.77029,4.848576 c 6.05275,-2.529001 8.89638,-7.440582 8.89638,-15.366031 0,-12.059187 -9.62564,-18.848377 -20.36257,-14.3622 -11.76839,4.917147 -12.00623,23.736173 -0.37255,29.47771 5.05662,2.495582 6.39764,2.523962 11.83874,0.250521 z m 167.88917,12.515201 c -24.15368,-5.7312 -28.71225,-39.887688 -6.94118,-52.008937 16.9808,-9.454224 38.44439,0.874241 41.97638,20.199396 2.29311,12.546713 -7.19664,27.317481 -20.03248,31.180501 -6.99972,2.1066 -8.50895,2.16988 -15.00272,0.62904 z m 17.01173,-15.829826 c 8.05512,-8.055122 5.98715,-20.929853 -4.15876,-25.891537 -12.59577,-6.159742 -25.84235,8.805596 -19.1867,21.676194 2.86601,5.542244 7.10475,8.014726 13.74019,8.014726 4.60508,0 6.5917,-0.785809 9.60527,-3.799383 z m 32.07748,14.548036 c -1.51176,-1.51176 -2.74866,-3.94865 -2.74866,-5.41532 0,-3.66752 4.9008,-8.252963 8.28156,-7.748657 1.53133,0.228428 4.01159,2.065324 5.51168,4.081987 l 2.72743,3.66667 -2.72743,3.66667 c -3.4462,4.63294 -7.51595,5.27729 -11.04458,1.74865 z m 68.07198,0.58319 c -6.36944,-1.98632 -13.82675,-8.35749 -17.16526,-14.665177 -3.52499,-6.660009 -2.83691,-19.082914 1.4634,-26.420826 14.50057,-24.743367 52.41622,-14.246644 52.09005,14.420826 -0.14834,13.038105 -7.57884,23.089407 -19.73849,26.700437 -7.87161,2.33762 -9.04871,2.33513 -16.6497,-0.0353 z M 528.0343,94.837513 c 10.05412,-10.05412 4.3424,-26.889052 -9.18621,-27.075761 -6.90419,-0.09529 -11.82333,3.055595 -14.40072,9.224164 -2.63426,6.304671 -1.29892,13.034306 3.54814,17.881368 3.08842,3.088426 4.96051,3.799383 10.00451,3.799383 5.05528,0 6.91469,-0.709562 10.03428,-3.829154 z M 165.33334,83.333333 V 56 h 6.66667 6.66666 v 27.333333 27.333337 h -6.66666 -6.66667 z m 92,0 V 56 h 6.66667 6.66667 v 27.333333 27.333337 h -6.66667 -6.66667 z M 283.97045,110 c -0.0151,0 -0.16466,-12.150032 -0.3323,-27.000071 l -0.30481,-27.000072 6.87518,7.2e-5 c 6.21872,6.4e-5 6.80859,0.25469 6.17782,2.666738 -0.88879,3.398742 0.22746,3.36061 5.19629,-0.17751 8.40046,-5.981651 19.98151,-4.368202 26.29965,3.664015 2.57365,3.271863 2.7844,5.241787 2.7844,26.02664 v 22.486858 h -5.84869 -5.84869 L 318.42679,92.333333 C 318.10007,81.292155 317.22907,72.813 316.237,71.015743 c -3.40393,-6.166609 -12.53257,-5.207323 -17.12357,1.799436 -1.87629,2.863579 -2.43818,7.017446 -2.73711,20.234654 l -0.37615,16.631377 -6.00111,0.1594 C 286.69844,109.92827 283.98557,110 283.97045,110 Z m 58.73851,-21 c 0.13757,-18.966284 -0.10453,-21.643586 -1.94256,-21.481481 -1.61992,0.142869 -2.09972,-1.151996 -2.09972,-5.666667 0,-4.68213 0.46641,-5.852993 2.33333,-5.857558 1.87715,-0.0046 2.40664,-1.373142 2.70826,-7 0.2062,-3.846862 0.71402,-8.099067 1.12848,-9.449346 1.10389,-3.596411 8.33668,-6.158151 14.90098,-5.277693 5.47824,0.734786 5.59562,0.858721 5.59562,5.908304 0,4.799584 -0.26788,5.157774 -3.85735,5.157774 -4.07066,0 -5.47599,1.909972 -5.47599,7.442384 0,2.796006 0.61987,3.224283 4.66667,3.224283 4.65093,0 4.66667,0.0205 4.66667,6.078689 0,3.517583 -0.53594,5.747465 -1.27202,5.292541 -0.69961,-0.432382 -2.79961,-0.402747 -4.66667,0.06585 l -3.39465,0.852003 v 21.188789 21.188788 h -6.72411 -6.72411 z M 466.66668,83.333333 V 56 h 6.66667 6.66667 v 27.333333 27.333337 h -6.66667 -6.66667 z M 166.09524,48.571429 c -5.12368,-5.123682 -1.1063,-15.238096 6.05248,-15.238096 6.58269,0 10.38615,10.626919 5.41397,15.126684 -3.07987,2.787238 -8.73567,2.842192 -11.46645,0.111412 z m 92.01764,-0.446709 c -3.49772,-3.864933 -2.33688,-10.878937 2.22046,-13.416458 3.29252,-1.833267 4.04082,-1.833237 7.33334,2.95e-4 4.48137,2.495584 5.78965,10.311312 2.30869,13.792271 -2.92898,2.928987 -9.04697,2.735012 -11.86249,-0.376108 z M 467.66117,49 c -1.20003,-0.916667 -2.57217,-3.286473 -3.04921,-5.266236 -0.67259,-2.791306 -0.1038,-4.363117 2.53308,-7 4.10861,-4.108608 7.3796,-4.306496 11.27023,-0.681824 7.86302,7.325516 -2.22074,19.466471 -10.7541,12.94806 z"
       id="path1" />
  </g>
</svg>
