<svg xmlns="http://www.w3.org/2000/svg" xmlns:xlink="http://www.w3.org/1999/xlink" id="Layer_1" width="60" height="60" version="1.1" viewBox="0 0 512 512" xml:space="preserve"><path style="fill:#fa6e51" d="M512,256.006C512,397.402,397.394,512.004,256.004,512C114.606,512.004,0,397.402,0,256.006	C-0.007,114.61,114.606,0,256.004,0C397.394,0,512,114.614,512,256.006z"/><path style="fill:#e8573f" d="M512,256.006c0-0.484-116.626-118.191-117.135-118.675c-20.671-20.161-49.423-38.084-86.55-38.084	c-3.362,0-6.307,2.26-7.203,5.498c-0.437,1.604-11.237,39.302-45.062,39.302c-1.439,0-45.871-41.472-46.427-41.878	c-1.382-1.775-3.487-2.922-5.841-2.922c-83.132,0-124.548,89.767-126.276,93.588c-1.357,3.011-0.569,6.556,1.924,8.718l0.875,0.756	c0.207,0.23,71.211,71.294,71.211,71.294V405.38c0,2.442,1.249,4.508,3.062,5.871c0.425,0.565,94.61,100.682,99.186,100.721	c0.748,0.006,1.491,0.028,2.241,0.028C397.394,512.004,512,397.402,512,256.006z"/><path style="fill:#f4f6f9" d="M434.492,192.807c-1.721-3.82-43.154-93.561-126.246-93.561c-3.36,0-6.305,2.26-7.202,5.497	c-0.437,1.603-11.233,39.291-45.05,39.291s-44.604-37.687-45.048-39.273c-0.882-3.254-3.835-5.515-7.202-5.515	c-83.107,0-124.512,89.741-126.239,93.561c-1.356,3.01-0.569,6.554,1.924,8.715l52.251,45.195c1.567,1.348,3.63,1.99,5.679,1.775	c2.063-0.219,3.936-1.286,5.175-2.941l8.959-11.943V405.29c0,4.123,3.339,7.465,7.465,7.465h194.076	c4.126,0,7.465-3.342,7.465-7.465V233.606l8.959,11.943c1.239,1.654,3.113,2.722,5.168,2.941c2.114,0.222,4.118-0.427,5.685-1.775	l52.266-45.195C435.068,199.361,435.855,195.818,434.492,192.807z M376.598,230.192l-17.597-23.457	c-1.924-2.57-5.27-3.619-8.332-2.603c-3.047,1.017-5.103,3.867-5.103,7.082v186.61H166.42v-186.61c0-3.215-2.055-6.065-5.103-7.082	c-3.054-1.01-6.4,0.041-8.332,2.603l-17.589,23.457l-41.798-36.156c9.36-17.568,45.056-76.347,104.779-79.711	c6.765,18.013,25.003,44.637,57.616,44.637s50.851-26.625,57.616-44.637c59.723,3.364,95.427,62.143,104.794,79.711L376.598,230.192	z"/></svg>