<?xml version="1.0" encoding="UTF-8" standalone="no"?>
<!-- Created with Inkscape (http://www.inkscape.org/) -->

<svg
   version="1.1"
   id="svg1"
   width="965"
   height="353"
   viewBox="0 0 965 353"
   xmlns="http://www.w3.org/2000/svg"
   xmlns:svg="http://www.w3.org/2000/svg">
  <defs
     id="defs1" />
  <g
     id="g1">
    <path
       style="fill:#a0e8f8;fill-opacity:1"
       d="m 879.64317,348.89298 c -5.79682,-1.3619 -9.42869,-3.87837 -13.24338,-9.17616 -1.89428,-2.63075 -4.67166,-5.2855 -6.17197,-5.89945 -6.45827,-2.64283 -56.42406,-1.7603 -66.45483,1.17377 -2.04985,0.59959 -7.07251,3.32778 -11.16146,6.06264 -9.31807,6.2323 -14.79685,8.26619 -20.32356,7.54473 -2.31662,-0.30241 -12.51207,-3.25249 -22.65655,-6.55572 -10.9695,-3.57187 -24.21984,-7.06697 -32.69504,-8.62411 -28.00552,-5.14543 -30.40425,-7.67772 -24.29693,-25.64984 l 2.63946,-7.76716 -2.13107,-10.4578 c -3.13853,-15.40171 -2.19952,-16.84866 12.08477,-18.62199 11.60014,-1.44011 17.82643,-5.90527 19.79645,-14.19694 0.66774,-2.81046 0.77889,-2.51806 0.86484,2.27505 0.19262,10.74214 -6.42512,16 -20.1382,16 -8.69209,0 -10.76162,1.21743 -10.74593,6.32143 0.005,1.74821 1.11019,5.5422 2.45516,8.43108 4.01969,8.63399 4.09488,11.01626 0.62151,19.69059 -1.69754,4.23941 -3.08644,8.50427 -3.08644,9.47747 0,3.6375 3.77799,5.11482 25.58489,10.00453 12.05331,2.70269 26.41511,6.34762 31.91511,8.09985 11.59782,3.69491 22.78618,4.86078 28.5121,2.97106 2.12698,-0.70197 5.31867,-2.7738 7.09264,-4.60407 4.10349,-4.23373 4.95296,-11.24175 2.41916,-19.95772 -2.38847,-8.21606 -4.94199,-12.90874 -16.59623,-30.49936 -21.10801,-31.85994 -29.93555,-40.98712 -38.30976,-39.61015 -1.71485,0.28197 -4.01791,0.66176 -5.11791,0.84398 -1.87127,0.30998 -2,-0.22492 -2,-8.31022 0,-8.43556 0.12477,-8.88844 5.23455,-19 2.87901,-5.69716 8.07356,-17.80814 11.54346,-26.9133 6.59021,-17.293 8.03286,-19.78861 24.2474,-41.94517 4.62874,-6.325 9.91379,-14.425 11.74457,-18 3.26403,-6.37377 3.31399,-6.66507 2.57235,-15 -0.41598,-4.675 -1.05305,-20.65 -1.41572,-35.5 -0.87871,-35.98095 0.70458,-43.033767 12.12381,-54.005823 9.83765,-9.452399 21.11225,-13.247858 35.94958,-12.10199 23.36534,1.804476 37.77979,11.272163 46.95729,30.842432 C 872.71375,57.443598 874,63.192425 874,75.476862 c 0,11.0186 1.34407,21.784857 4.16726,33.380568 4.08019,16.7586 10.47974,28.65077 24.16518,44.90576 11.90969,14.14582 16.68143,22.28841 24.06808,41.0702 7.52274,19.12781 10.80125,41.55216 7.47153,51.1038 -1.36057,3.90294 -17.96414,21.06945 -22.87205,23.64752 -2.31625,1.2167 -5.56106,1.82755 -9.59396,1.80611 -7.72303,-0.0411 -10.96132,-2.20306 -15.19369,-10.14379 -3.87068,-7.26213 -6.36447,-9.65091 -9.15165,-8.76629 -5.28833,1.67844 -7.30807,13.05571 -4.46437,25.14791 1.46571,6.23258 1.76877,10.68197 1.45569,21.37135 -0.89065,30.40896 -0.83737,31.28446 2.14153,35.18849 4.71727,6.18225 11.60122,8.15171 19.85232,5.67962 2.07784,-0.62254 8.44254,-4.61237 14.14377,-8.86629 12.19536,-9.09947 14.43946,-10.30756 31.48862,-16.95156 22.48964,-8.76413 23.86845,-13.63573 6.32174,-22.33578 -7.23493,-3.58723 -8.85303,-4.85972 -10.872,-8.54982 C 933.61007,276.73489 932.82282,261 936.01905,261 c 0.53952,0 0.98095,1.20798 0.98095,2.6844 0,4.97433 3.18411,14.08327 6.20329,17.74606 1.64866,2.00011 5.53988,5.24474 8.64714,7.21029 9.0459,5.72211 11.14957,8.1183 11.14957,12.69995 0,3.3566 -0.62559,4.54407 -4.06848,7.72252 -2.23766,2.0658 -10.31982,6.96234 -17.96036,10.8812 -13.71211,7.03301 -24.60647,14.35027 -34.66173,23.28076 -7.01535,6.23063 -16.07473,8.15616 -26.66626,5.6678 z M 793.50783,327.6355 c 1.65896,-3.97044 0.72606,-8.53241 -2.81527,-13.767 -3.83878,-5.67428 -3.84858,-5.71463 -1.67126,-6.8799 1.72853,-0.92508 2.85666,-0.59554 6.71884,1.96267 6.78502,4.49421 11.17939,5.37106 23.75986,4.74104 18.39842,-0.92138 29.94557,-5.87965 37.70972,-16.19231 2.0704,-2.75 4.5577,-5 5.52733,-5 3.03086,0 2.90122,10.83395 -0.25813,21.57165 -2.98951,10.16045 -2.95597,13.28896 0.14719,13.73167 1.96226,0.27994 2.28413,-0.56772 4.17677,-11 3.36183,-18.53043 3.47408,-20.87819 1.67301,-34.99227 -1.89462,-14.84719 -1.56445,-20.75698 1.4947,-26.7534 1.70535,-3.34276 2.84918,-4.28458 6.33628,-5.21724 3.55343,-0.9504 4.52855,-1.77804 5.91224,-5.01808 2.33059,-5.45729 8.71524,-8.26196 17.24851,-7.57699 3.36751,0.27031 7.56492,1.23725 9.32757,2.14875 5.06831,2.62092 3.72588,-0.0114 -1.54519,-3.0299 -2.6125,-1.49607 -4.82871,-2.75625 -4.92491,-2.8004 -0.0962,-0.0442 0.45926,-2.77657 1.23437,-6.07204 0.77512,-3.29546 1.41225,-8.46675 1.41586,-11.49175 0.008,-6.58895 -4.04381,-25.10574 -6.91235,-31.59055 -2.52216,-5.70175 -9.73216,-15.87097 -14.11585,-19.90945 -3.44567,-3.17433 -3.25512,-2.5601 1.30701,4.21311 4.52923,6.72434 11.43879,22.10715 13.7925,30.70635 1.76388,6.44427 2.0862,9.7972 1.73035,18 -0.24059,5.54607 -1.0511,11.35129 -1.80183,12.90554 -2.57816,5.3376 -10.99949,7.51556 -14.42483,3.7306 -1.39626,-1.54285 -1.93309,-4.79544 -2.5995,-15.75 -1.44116,-23.69021 -6.12274,-40.41896 -13.52363,-48.32415 -1.3662,-1.45929 -3.43592,-6.23864 -4.92109,-11.36363 -2.82879,-9.76156 -6.3866,-17.41704 -11.77078,-25.32759 -4.48816,-6.59412 -5.27317,-11.15943 -3.34701,-19.46488 0.82964,-3.57731 1.24947,-7.49449 0.93296,-8.70483 C 848.7761,103.03579 844.41615,100 841.96727,100 c -2.1591,0 -15.47358,-6.203398 -16.71727,-7.788806 -3.34222,-4.260539 -0.0455,-15.893613 5,-17.643515 6.401,-2.220011 13.34803,4.47262 12.3859,11.932321 -1.23962,9.611119 -1.36345,8.974105 1.81479,9.335788 C 848.5188,96.298738 850,93.874044 850,86.75169 850,70.487202 841.81534,61.12365 829.60145,63.414991 821.70646,64.8961 817.05806,72.199776 817.02196,83.180194 L 817,89.860389 813.7566,88.930194 C 811.97273,88.418587 808.88684,88 806.89906,88 h -3.61415 l -0.64746,-6.194625 c -0.74458,-7.123682 -3.87662,-14.327821 -6.94244,-15.968602 -2.76204,-1.478199 -7.42242,-1.306001 -9.42685,0.348315 -2.95884,2.44202 -5.43038,9.708488 -5.40087,15.87883 C 780.89964,88.826617 783.96839,97 786.47515,97 c 1.93825,0 3.37141,-3.217814 1.68372,-3.780377 C 786.17643,92.55881 784,87.35308 784,83.272166 784,77.962872 786.29293,75 790.40172,75 c 4.47609,0 6.77929,2.828372 7.37811,9.060465 0.46345,4.823184 0.29131,5.284586 -3.39582,9.102396 -2.1362,2.211917 -5.82272,5.369803 -8.19226,7.017529 -2.36954,1.64772 -4.74213,4.13702 -5.27241,5.53177 -0.87476,2.30079 -0.39362,3.07882 5.18922,8.39114 4.16934,3.96731 7.28014,6.0666 9.64796,6.5108 5.93875,1.11412 17.30598,-0.36217 27.24348,-3.53817 8.53176,-2.72674 11.46797,-4.13991 17.22248,-8.28903 1.3277,-0.95731 1.99409,-0.97033 2.90761,-0.0568 2.11527,2.11527 -0.60898,3.79027 -16.89669,10.38898 -15.47571,6.26973 -15.8849,6.37337 -24.9834,6.3278 -5.0875,-0.0255 -9.25,0.29065 -9.25,0.70251 0,0.41186 1.65247,2.00924 3.67216,3.54973 3.23901,2.47051 4.52429,2.80089 10.89646,2.80089 6.87578,0 7.82104,-0.30152 19.59341,-6.25 12.79343,-6.46441 14.27679,-6.96702 15.36504,-5.2062 0.98078,1.58693 -1.36698,3.84138 -6.94277,6.66685 -2.77273,1.40505 -9.83166,5.82171 -15.68651,9.8148 -5.85485,3.99309 -12.01918,7.56194 -13.6985,7.93078 -4.67578,1.02697 -8.41795,-1.54789 -15.20235,-10.46025 -3.34775,-4.3978 -6.5166,-7.99599 -7.04188,-7.99599 -0.52528,0 -0.95919,1.4625 -0.96424,3.25 -0.005,1.89084 -2.34505,8.05935 -5.59464,14.75 -5.89332,12.13387 -7.77619,20.55291 -5.53366,24.74312 0.9395,1.75546 0.63764,2.58045 -1.96269,5.36412 -3.70554,3.96678 -11.89725,20.72418 -14.85726,30.39276 -1.49873,4.89545 -2.32491,10.98996 -2.74798,20.27108 -0.37626,8.25449 -1.08522,13.92463 -1.87548,15 -1.1744,1.59809 -1.50184,1.50795 -4.32708,-1.19116 -4.80578,-4.59126 -6.6065,-10.56858 -6.5011,-21.57992 l 0.0909,-9.5 -1.88273,4 c -2.39812,5.09501 -1.89805,15.54505 1.1295,23.60316 2.37819,6.32978 7.27451,11.14436 33.26893,32.71354 8.08366,6.70751 15.39616,13.19287 16.25,14.4119 3.52156,5.02772 0.78182,12.87106 -5.47435,15.67203 l -3.89415,1.74346 3.57348,5.30632 c 4.91459,7.29775 7.05429,12.53987 7.87759,19.29959 0.38517,3.1625 1.12143,5.75 1.63612,5.75 0.51469,0 1.5684,-1.51403 2.34158,-3.3645 z M 797.0318,94.809017 c -0.0175,-0.930041 0.44814,-1.987602 1.03473,-2.350136 1.76258,-1.089334 2.0097,0.05904 0.45494,2.11412 -1.27997,1.691865 -1.46174,1.720664 -1.48967,0.236016 z M 815.5,93 c -0.33992,-0.55 0.057,-1 0.88197,-1 0.825,0 1.77811,0.45 2.11803,1 0.33992,0.55 -0.057,1 -0.88197,1 -0.825,0 -1.77811,-0.45 -2.11803,-1 z m -64.22253,87.83017 c 1.08182,-1.44898 1.72,-3.5737 1.48286,-4.93695 -0.38538,-2.21544 -0.53938,-2.11974 -2.07317,1.2884 -0.91127,2.02489 -2.11368,3.96395 -2.67201,4.30902 -1.41809,0.87643 -1.27414,2.76236 0.174,2.27964 0.65404,-0.21801 2.04378,-1.54106 3.08832,-2.94011 z M 871.8,127.8 c 2.19712,-2.19712 1.41078,-5.75341 -1.55,-7.01009 -1.5125,-0.64196 -3.99047,-2.29435 -5.50659,-3.67197 -1.92318,-1.74748 -3.07367,-2.18768 -3.80536,-1.45599 -1.77201,1.77201 0.0717,6.11416 4.16726,9.81423 4.28379,3.87015 4.92559,4.09292 6.69469,2.32382 z M 795,84.122445 c 0,-2.963484 -2.48572,-6.01158 -3.77417,-4.628041 -0.3992,0.428673 -0.16333,0.980298 0.52417,1.225834 0.6875,0.245536 1.25,1.758929 1.25,3.363095 C 793,85.6875 793.45,87 794,87 c 0.55,0 1,-1.2949 1,-2.877555 z m 44.0392,-3.549201 c -1.36289,-2.54658 -3.86762,-4.078155 -4.93076,-3.015022 -0.33291,0.332915 0.11601,1.132735 0.99762,1.777378 0.8816,0.644642 1.93809,2.228148 2.34776,3.518902 0.53355,1.681054 1.05137,2.04031 1.82531,1.266367 0.77394,-0.773942 0.70588,-1.780367 -0.23993,-3.547625 z m 1.52103,-36.204666 c 1.36943,-0.897283 3.90745,-1.921349 5.64005,-2.275705 4.49634,-0.919598 4.40563,-2.253117 -0.36362,-5.345554 -4.64134,-3.009503 -6.26585,-2.546165 -7.13439,2.034848 -0.28341,1.494808 -0.83485,3.730333 -1.22541,4.967833 -0.84494,2.677158 -0.24279,2.79796 3.08337,0.618578 z M 458.84237,342.66789 c -21.05784,-5.93087 -50.93521,-44.47944 -65.65022,-84.70367 -19.35934,-52.91974 -16.70095,-101.81361 7.26942,-133.70125 14.26598,-18.97795 36.66418,-31.022754 59.57358,-32.036147 12.21479,-0.540319 18.61919,0.861797 38.46485,8.421107 18.83224,7.17329 20.04805,7.10652 46,-2.52656 16.7239,-6.207725 23.76703,-7.497667 37.42411,-6.854178 21.58699,1.017125 37.63515,8.056956 52.54275,23.048868 l 8.96687,9.01758 -2.95258,2.08318 c -10.54869,7.4426 -22.10583,21.15311 -27.18775,32.25349 -9.77967,21.36161 -7.58012,49.74213 5.36818,69.26496 7.03091,10.60089 17.94956,20.34907 29.07025,25.95397 l 4.23183,2.13287 -2.06134,5.73894 c -3.51942,9.79835 -14.45058,31.33767 -20.37515,40.14824 -20.54349,30.55073 -33.32293,41.09539 -50.82034,41.93323 -9.36964,0.44866 -13.7814,-0.54307 -28.30347,-6.36238 -19.42064,-7.78228 -33.06981,-8.2616 -51.07515,-1.79361 -5.40551,1.94181 -12.76552,4.58391 -16.35556,5.87135 -8.32088,2.98398 -18.01689,3.83182 -24.13028,2.11001 z M 331.5,335.98116 c -6.6,-0.98098 -15.825,-2.29263 -20.5,-2.91477 -4.675,-0.62215 -19.075,-2.65163 -32,-4.50995 -12.925,-1.85833 -27.55,-3.91619 -32.5,-4.57302 -4.95,-0.65683 -19.125,-2.67131 -31.5,-4.47662 -12.375,-1.8053 -27.3375,-3.86859 -33.25,-4.58508 L 171,313.61902 V 249.80951 186 h 86.5 86.5 v 76 c 0,41.8 -0.1125,75.94707 -0.25,75.88238 -0.1375,-0.0647 -5.65,-0.92024 -12.25,-1.90122 z M 134,308.43506 c -4.675,-0.72277 -18.85,-2.70727 -31.5,-4.41 -12.65,-1.70272 -27.725,-3.75691 -33.5,-4.56486 -5.775,-0.80794 -19.033465,-2.62476 -29.463255,-4.03738 -10.42979,-1.41261 -19.31729,-2.78719 -19.75,-3.05462 C 19.354035,292.10077 19,268.05852 19,238.94098 V 186 h 65 65 v 62 62 l -3.25,-0.12541 c -1.7875,-0.069 -7.075,-0.71677 -11.75,-1.43953 z M 19.458588,163.75 c -0.263254,-0.6875 -0.361631,-24.64949 -0.218615,-53.24886 L 19.5,58.502281 26,57.771488 c 7.393477,-0.831246 23.482738,-3.017206 42.5,-5.774243 7.15,-1.036575 16.825,-2.36876 21.5,-2.960412 12.29852,-1.556457 51.93138,-7.024442 55.75,-7.691601 L 149,40.777418 V 102.88871 165 H 84.468615 C 33.76545,165 19.834664,164.73214 19.458588,163.75 Z M 171,101.57946 V 38.158911 l 2.75,-0.563768 c 2.79271,-0.572523 43.54255,-6.558506 57.25,-8.409787 4.125,-0.557109 18.525,-2.624098 32,-4.593308 13.475,-1.969211 31.025,-4.526159 39,-5.682106 7.975,-1.155948 20.00506,-2.958572 26.73346,-4.005833 C 335.46186,13.856849 341.64936,13 342.48346,13 343.82554,13 344,21.74268 344,89 v 76 H 257.5 171 Z M 515.50562,85.017708 c -1.01773,-3.206576 0.35885,-14.366784 2.71374,-22.000931 6.2619,-20.299957 19.88856,-36.088534 39.36737,-45.61313 8.42663,-4.120388 22.90799,-8.2422556 24.24837,-6.901875 0.31975,0.319747 0.51893,3.845195 0.44262,7.834328 -0.64903,33.929851 -27.98786,65.392431 -59.35468,68.30767 -6.33429,0.588711 -6.74291,0.499133 -7.41742,-1.626062 z"
       id="path1" />
  </g>
</svg>
