<?xml version="1.0" encoding="UTF-8" standalone="no"?>
<!-- Uploaded to: SVG Repo, www.svgrepo.com, Generator: SVG Repo Mixer Tools -->

<svg
   width="60"
   height="60"
   viewBox="0 0 40.000001 40.000001"
   fill="none"
   version="1.1"
   id="svg3"
   xmlns="http://www.w3.org/2000/svg"
   xmlns:svg="http://www.w3.org/2000/svg">
  <defs
     id="defs3" />
  <g
     id="g3"
     transform="translate(-3.9999998,-3.9999998)">
    <circle
       cx="24"
       cy="24"
       r="20"
       fill="#0070BA"
       id="circle1"
       style="fill:#ffffff;fill-opacity:1" />
    <path
       d="m 32.3305,18.0977 c -0.0223,0.1423 -0.0477,0.2879 -0.0763,0.4374 -0.9838,5.051 -4.3496,6.7959 -8.6482,6.7959 h -2.1887 c -0.5257,0 -0.9687,0.3817 -1.0506,0.9003 l -1.1206,7.1068 -0.3173,2.0146 C 18.8755,35.693 19.1379,36 19.4815,36 h 3.8819 c 0.4597,0 0.8502,-0.334 0.9226,-0.7873 l 0.0381,-0.1973 0.7309,-4.6382 0.0469,-0.2545 c 0.0716,-0.4549 0.4629,-0.7889 0.9226,-0.7889 h 0.5806 c 3.761,0 6.7052,-1.527 7.5657,-5.9458 0.3595,-1.8459 0.1734,-3.3872 -0.7778,-4.4712 -0.2879,-0.3268 -0.645,-0.598 -1.0625,-0.8191 z"
       fill="white"
       fill-opacity="0.6"
       id="path1"
       style="fill:#328bdb;fill-opacity:0.6" />
    <path
       d="m 31.3009,17.6871 c -0.1503,-0.0437 -0.3054,-0.0835 -0.4645,-0.1193 -0.1598,-0.035 -0.3237,-0.066 -0.4923,-0.093 C 29.754,17.3793 29.1074,17.334 28.4147,17.334 h -5.8471 c -0.1439,0 -0.2807,0.0326 -0.4032,0.0914 -0.2696,0.1297 -0.47,0.385 -0.5185,0.6975 l -1.2439,7.8784 -0.0358,0.2298 c 0.0819,-0.5185 0.5249,-0.9003 1.0506,-0.9003 h 2.1887 c 4.2986,0 7.6644,-1.7457 8.6482,-6.7959 0.0294,-0.1495 0.0541,-0.2951 0.0763,-0.4374 -0.2489,-0.132 -0.5185,-0.245 -0.8088,-0.3412 -0.0716,-0.0239 -0.1455,-0.0469 -0.2203,-0.0692 z"
       fill="white"
       fill-opacity="0.8"
       id="path2"
       style="fill:#0b175c;fill-opacity:0.8" />
    <path
       d="m 21.6461,18.1231 c 0.0485,-0.3126 0.2489,-0.5679 0.5185,-0.6967 0.1233,-0.0589 0.2593,-0.0915 0.4032,-0.0915 h 5.8471 c 0.6928,0 1.3393,0.0454 1.9295,0.1408 0.1686,0.027 0.3324,0.0581 0.4923,0.093 0.159,0.0358 0.3141,0.0756 0.4644,0.1193 0.0748,0.0223 0.1487,0.0454 0.2211,0.0684 0.2903,0.0963 0.5599,0.21 0.8088,0.3412 C 32.6237,16.231 32.3287,14.9601 31.3194,13.8093 30.2068,12.5424 28.1986,12 25.629,12 h -7.46 c -0.5249,0 -0.9727,0.3817 -1.0538,0.9011 l -3.1073,19.6958 c -0.0612,0.3897 0.2394,0.7412 0.6323,0.7412 h 4.6056 l 1.1564,-7.3367 z"
       fill="white"
       id="path3"
       style="fill:#0c1f7c;fill-opacity:1" />
  </g>
</svg>
