<svg xmlns="http://www.w3.org/2000/svg" xmlns:svg="http://www.w3.org/2000/svg" id="svg1" width="1066.667" height="1066.667" version="1.1" viewBox="0 0 1066.667 1066.667"><g id="g1"><path style="fill:#ccc;fill-opacity:1" id="path1" d="m 501.33337,1003.22 c -2.56667,-0.2901 -11.26667,-1.1848 -19.33333,-1.9882 C 378.33229,990.90667 276.39722,941.9299 200.64997,866.05145 124.11335,789.38225 78.507658,694.69043 65.128815,584.66671 62.781961,565.36687 62.745311,501.40604 65.070368,482.6667 70.737281,436.9929 80.691401,397.09205 96.012875,358.63439 143.23533,240.10371 240.10371,143.23533 358.63439,96.012875 410.59661,75.311201 462.64663,64.693372 520.17176,63.060415 651.01528,59.34618 773.47057,108.04998 866.04367,200.62308 c 68.81389,68.81389 113.0447,153.15209 130.43504,248.71029 5.69629,31.30064 6.84269,45.37347 6.84269,84 0,38.62654 -1.1464,52.69937 -6.84269,84.00001 -17.28898,95.00122 -62.00109,180.23813 -130.45415,248.69118 -74.95449,74.9545 -168.65308,120.75652 -275.63172,134.73514 -15.42826,2.0159 -77.75756,3.7379 -89.05947,2.4603 z m 79.2501,-69.30825 c 86.7429,-9.75746 168.69539,-48.57864 231.94531,-109.87331 36.09624,-34.9804 61.44004,-69.52339 82.69043,-112.70505 63.0293,-128.07815 53.8521,-279.22706 -24.20556,-398.6667 -15.82298,-24.21148 -28.63191,-39.71051 -52.96723,-64.0913 C 784.5267,214.99304 755.39963,193.64805 715.23301,173.23137 587.44433,108.27639 433.22235,116.86609 312.66669,195.6531 c -24.21148,15.82298 -39.71051,28.63191 -64.0913,52.96722 -39.04911,38.97629 -65.40132,77.40187 -85.94595,125.32239 -53.82733,125.55277 -40.742,268.96065 34.9194,382.69685 15.27595,22.9632 26.23269,36.46912 46.40621,57.20303 34.05349,34.99943 67.95621,59.88986 110.04498,80.79197 70.36722,34.94573 146.99873,48.22945 226.58344,39.27719 z m -53.91676,-152.4835 c -11.01641,-2.26652 -19.79524,-9.17912 -25.51998,-20.09486 l -3.14669,-6 -0.38454,-92.9488 -0.38454,-92.9488 -92.9488,-0.38454 -92.9488,-0.38454 -6.66667,-3.54234 c -12.9633,-6.88805 -19.72549,-17.78648 -19.72549,-31.791 0,-14.00451 6.76219,-24.90294 19.72549,-31.79099 l 6.66667,-3.54234 92.9488,-0.38454 92.9488,-0.38454 0.38454,-92.9488 0.38454,-92.9488 3.14669,-6 c 7.05191,-13.44635 18.01074,-20.38799 32.18664,-20.38799 14.17591,0 25.13473,6.94164 32.18665,20.38799 l 3.14669,6 0.38454,92.9488 0.38454,92.9488 92.9488,0.38454 92.9488,0.38454 6.66667,3.54234 c 12.9633,6.88805 19.72549,17.78648 19.72549,31.79099 0,14.00452 -6.76219,24.90295 -19.72549,31.791 l -6.66667,3.54234 -92.9488,0.38454 -92.9488,0.38454 -0.38454,92.9488 -0.38454,92.9488 -3.54234,6.66667 c -1.94828,3.66667 -5.24828,8.25065 -7.33333,10.18664 -8.09359,7.51497 -20.95495,11.33381 -31.12433,9.24155 z"/></g></svg>