<svg xmlns="http://www.w3.org/2000/svg" xmlns:svg="http://www.w3.org/2000/svg" id="svg1" width="2028.215" height="2027.998" version="1.1" viewBox="0 0 2028.215 2027.998"><g id="g1" transform="translate(-9.9581289,-9.958169)"><path style="fill:#ccc;fill-opacity:1" id="path1" d="m 1013.0284,2035.9277 c -9.0511,-4.1057 -10.035,-5.4489 -37.1325,-50.6957 -14.40464,-24.0526 -26.81113,-44.4558 -27.56998,-45.3405 -0.95058,-1.1081 -3.93739,-1.8181 -9.60282,-2.2825 -4.52271,-0.3707 -10.48612,-0.9346 -13.25203,-1.2532 l -5.02893,-0.5792 -32.94543,36.3617 c -18.11999,19.9989 -34.30697,37.6672 -35.97107,39.2629 -10.31785,9.8934 -27.94738,10.1813 -38.72017,0.6322 -2.36801,-2.099 -5.09714,-5.3277 -6.06475,-7.1749 -0.9676,-1.8472 -9.40811,-24.699 -18.7567,-50.7819 -9.34858,-26.0828 -17.1069,-47.5294 -17.24072,-47.6589 -0.13381,-0.1296 -6.1523,-2.0029 -13.37442,-4.1629 l -13.13111,-3.9273 -40.36889,29.9464 C 681.666,1944.7445 661.25,1959.2914 658.5,1960.6004 c -7.52069,3.5799 -16.29426,3.3422 -24.30021,-0.6584 -6.4738,-3.235 -10.04048,-6.7493 -13.26511,-13.07 -1.43461,-2.8121 -4.00252,-17.4977 -9.4522,-54.056 C 607.36711,1865.2087 604,1842.0615 604,1841.3776 c 0,-0.9217 -17.5235,-11.2111 -24.15759,-14.1847 -0.37687,-0.169 -20.85808,9.2198 -45.51381,20.8638 -24.65573,11.644 -46.57268,21.7947 -48.70433,22.5571 -9.87771,3.5329 -21.38733,0.7536 -29.18949,-7.0486 -9.4208,-9.4208 -9.47151,-9.969 -6.43478,-69.5652 1.07898,-21.175 1.95608,-41.65 1.94911,-45.5 l -0.0127,-7 -9.53491,-7.807 c -5.2442,-4.2938 -10.10676,-8.0264 -10.80567,-8.2946 -0.69892,-0.2682 -23.05641,4.9947 -49.68332,11.6953 -54.79773,13.7897 -57.69788,14.203 -67.1632,9.5721 -6.40946,-3.1359 -11.12885,-8.0354 -14.07749,-14.615 -3.79805,-8.4749 -3.0911,-13.0181 10.27795,-66.0508 10.79547,-42.8237 12.0698,-48.7506 10.8883,-50.6414 -0.73596,-1.1778 -4.48811,-6.0103 -8.33811,-10.7388 l -7,-8.5974 -6.5,0.01 c -3.575,0 -24.275,0.8933 -46,1.9787 -48.5245,2.4243 -53.30512,2.4498 -59.56337,0.3174 -6.60815,-2.2516 -14.50871,-10.1522 -16.76034,-16.7603 -2.1943,-6.4399 -2.12699,-14.3811 0.17208,-20.3027 1.01661,-2.6184 11.16093,-24.4591 22.54293,-48.535 l 20.69454,-43.7742 -6.51469,-12.2804 -6.5147,-12.2804 -51.59235,-7.7077 c -37.17948,-5.5545 -52.65457,-8.2497 -55.39469,-9.6476 -6.261264,-3.1942 -9.784971,-6.7786 -13.011382,-13.2352 -4.003814,-8.0123 -4.239311,-16.7839 -0.652403,-24.3002 1.312347,-2.75 15.862145,-23.1558 32.332875,-45.3462 l 29.94679,-40.3461 -3.95831,-13.1539 c -2.17708,-7.2346 -4.05412,-13.2642 -4.17122,-13.399 -0.1171,-0.1349 -21.55254,-7.898 -47.63433,-17.2513 -26.081787,-9.3534 -48.932762,-17.793 -50.779945,-18.7548 -4.78023,-2.4889 -10.724122,-9.5756 -12.566383,-14.9823 -3.392089,-9.9552 -1.125773,-21.8719 5.587606,-29.3806 1.285511,-1.4378 18.923014,-17.6197 39.194453,-35.9598 l 36.857159,-33.3457 -0.55305,-4.0401 c -0.30419,-2.2221 -0.86606,-8.1906 -1.24861,-13.2632 -0.49608,-6.5781 -1.15684,-9.6187 -2.3041,-10.6028 -0.88471,-0.7589 -21.287947,-13.1655 -45.34053,-27.5701 -29.622277,-17.7402 -44.528158,-27.2341 -46.199696,-29.4256 -8.8135536,-11.5552 -8.8135536,-25.8018 0,-37.357 1.671538,-2.1915 16.577419,-11.68537 46.199696,-29.4256 24.052583,-14.40464 44.45582,-26.81117 45.34053,-27.57006 1.14726,-0.98412 1.80802,-4.02472 2.3041,-10.60282 0.38255,-5.07266 0.94442,-11.04109 1.24861,-13.26317 l 0.55305,-4.04015 -36.857159,-33.34568 C 55.085722,868.7339 37.448219,852.55197 36.162708,851.11417 c -6.713379,-7.50866 -8.979695,-19.42533 -5.587606,-29.38056 1.842261,-5.40674 7.786153,-12.49336 12.566383,-14.9823 1.847183,-0.96178 24.698158,-9.40142 50.779945,-18.75476 26.08179,-9.35334 47.51723,-17.11643 47.63433,-17.25131 0.1171,-0.13488 1.99414,-6.16447 4.17122,-13.39908 l 3.95831,-13.15385 -29.94679,-40.34615 C 103.26777,681.65577 88.717972,661.25 87.405625,658.5 c -6.435604,-13.48569 -0.268268,-30.42781 13.663785,-37.53541 2.74012,-1.3979 18.21521,-4.09306 55.39469,-9.64757 l 51.59235,-7.70777 6.5147,-12.28036 6.51469,-12.28036 -20.69454,-43.77426 c -11.382,-24.07585 -21.52632,-45.9166 -22.54293,-48.535 -2.29907,-5.92155 -2.36638,-13.86273 -0.17208,-20.30264 2.25163,-6.60815 10.15219,-14.50871 16.76034,-16.76034 6.25825,-2.1324 11.03887,-2.10692 59.56337,0.3174 21.725,1.08539 42.425,1.9758 46,1.97868 l 6.5,0.005 7,-8.59738 c 3.85,-4.72855 7.60215,-9.56101 8.33811,-10.7388 1.1815,-1.8908 -0.0928,-7.8177 -10.8883,-50.64143 -13.83841,-54.89451 -14.25057,-57.77713 -9.61561,-67.25065 3.13586,-6.40946 8.03545,-11.12885 14.61499,-14.07749 8.46654,-3.79428 13.02861,-3.08646 65.96336,10.23445 26.62691,6.7006 48.9844,11.96348 49.68332,11.69528 0.69891,-0.2682 5.56147,-4.00078 10.80567,-8.29461 l 9.53491,-7.80698 0.0127,-7 c 0.007,-3.85 -0.87013,-24.325 -1.94911,-45.5 -3.03673,-59.59615 -2.98602,-60.14442 6.43478,-69.56522 7.80216,-7.80215 19.31178,-10.58146 29.18949,-7.04858 2.13165,0.76241 24.0486,10.91312 48.70433,22.55713 24.65573,11.64402 45.13694,21.03273 45.51381,20.8638 C 586.4765,217.83354 604,207.54415 604,206.62236 c 0,-0.68385 3.36711,-23.83111 7.48248,-51.43835 5.44968,-36.55834 8.01759,-51.24391 9.4522,-54.05597 3.22463,-6.320789 6.79131,-9.835015 13.26511,-13.070012 8.00595,-4.00062 16.77952,-4.238355 24.30021,-0.658456 2.75,1.309019 23.166,15.855948 45.36888,32.326498 l 40.36889,29.94647 13.13111,-3.9273 c 7.22212,-2.16001 13.24061,-4.03331 13.37442,-4.1629 0.13382,-0.12958 7.89214,-21.57612 17.24072,-47.658974 9.34859,-26.082851 17.7891,-48.934698 18.7567,-50.781881 0.96761,-1.847184 3.69674,-5.075888 6.06475,-7.174899 10.77279,-9.549037 28.40232,-9.261175 38.72017,0.63224 1.6641,1.595645 17.85108,19.263939 35.97107,39.262873 l 32.94543,36.361701 5.02893,-0.57921 c 2.76591,-0.31857 8.72932,-0.88252 13.25203,-1.25323 5.66543,-0.46438 8.65224,-1.17431 9.60282,-2.28249 0.75885,-0.88466 13.16534,-21.287857 27.56998,-45.34044 17.74023,-29.622277 27.2341,-44.528158 29.4256,-46.199696 11.5552,-8.8135536 25.8018,-8.8135536 37.357,0 2.1915,1.671538 11.6854,16.577419 29.4256,46.199696 14.4046,24.052583 26.8112,44.45582 27.5701,45.34053 0.9841,1.14726 4.0247,1.80802 10.6028,2.3041 5.0726,0.38255 11.0382,0.94403 13.2568,1.24774 l 4.0339,0.55219 32.9405,-36.356295 c 18.1173,-19.995962 34.3021,-37.661824 35.9662,-39.257469 10.3178,-9.893415 27.9473,-10.181277 38.7201,-0.63224 2.368,2.099011 5.0969,5.327715 6.0642,7.174899 0.9673,1.847183 9.4012,24.69242 18.742,50.767192 9.3408,26.074773 17.0994,47.510223 17.2413,47.634333 0.1419,0.12411 6.1866,2.00973 13.4327,4.19028 l 13.1748,3.96463 40.3252,-29.95735 c 22.1789,-16.47654 42.5753,-31.029179 45.3253,-32.339191 7.5194,-3.581991 16.2924,-3.344924 24.3002,0.656649 6.4669,3.231521 10.0407,6.749589 13.253,13.046192 1.4218,2.787 4.0613,17.94697 9.6443,55.39299 l 7.6868,51.55584 12.3023,6.52633 12.3023,6.52632 42.7555,-20.22131 c 53.0589,-25.09426 52.4313,-24.83128 59.3275,-24.86065 8.3836,-0.0357 14.5965,2.51426 20.4933,8.41104 9.4208,9.4208 9.4715,9.96907 6.4348,69.56522 -1.079,21.175 -1.9653,41.65 -1.9697,45.5 l -0.01,7 8.5974,7 c 4.7285,3.85 9.5833,7.62674 10.7885,8.39276 1.9692,1.25171 7.0977,0.14975 50.6414,-10.88122 52.9888,-13.42373 57.5314,-14.13537 66.0011,-10.33968 6.5796,2.94864 11.4791,7.66803 14.615,14.07749 4.6309,9.46532 4.2176,12.36547 -9.5721,67.1632 -6.7006,26.62691 -11.9635,48.9844 -11.6953,49.68332 0.2682,0.69891 4.0008,5.56147 8.2946,10.80567 l 7.807,9.53491 7,0.0236 c 3.85,0.013 24.325,-0.86613 45.5,-1.95356 59.5063,-3.05592 60.1395,-2.99741 69.5652,6.4283 8.1508,8.1508 10.6763,19.77057 6.5864,30.30449 -1.0166,2.6184 -11.1609,24.45915 -22.5429,48.535 l -20.6945,43.77426 6.6183,12.47574 c 3.6401,6.86165 7.201,12.47573 7.9132,12.47573 0.7122,0 23.9023,3.37361 51.5336,7.49691 44.7892,6.6837 50.7782,7.79054 55.2124,10.20395 5.9713,3.24998 9.2955,6.9882 12.5925,14.16064 2.1005,4.56955 2.3956,6.41591 1.9982,12.5 -0.2948,4.51427 -1.2328,8.60896 -2.5515,11.1385 -1.1469,2.2 -15.5473,22.15596 -32.001,44.34657 l -29.9158,40.34657 3.934,13.15343 c 2.1637,7.23439 4.0408,13.26371 4.1713,13.3985 0.1306,0.13478 22.2144,8.12594 49.0753,17.75812 29.091,10.43192 50.1741,18.53229 52.1427,20.03381 13.8132,10.53585 15.3406,31.44925 3.1817,43.56517 -1.8754,1.86881 -19.5248,18.00714 -39.2209,35.86295 l -35.8111,32.46513 0.5524,4.03487 c 0.3037,2.21919 0.8674,8.21358 1.2526,13.32089 0.6396,8.48064 0.9261,9.44516 3.3041,11.12111 1.4321,1.00931 21.1074,12.89759 43.7229,26.41841 22.6155,13.52081 42.5019,25.74686 44.192,27.16896 1.69,1.4221 4.449,5.3395 6.1309,8.7053 4.3113,8.6278 4.3113,16.9726 0,25.6004 -1.6819,3.3658 -4.4409,7.2832 -6.1309,8.7053 -1.6901,1.4221 -21.5765,13.6482 -44.192,27.169 -22.6155,13.5208 -42.2936,25.411 -43.729,26.4227 -2.3636,1.6659 -2.6737,2.6683 -3.2858,10.6211 -0.3717,4.83 -0.9302,10.8246 -1.241,13.3216 l -0.5652,4.5398 35.8056,32.4602 c 19.693,17.853 37.34,33.9891 39.2154,35.8579 12.1589,12.116 10.6315,33.0293 -3.1817,43.5652 -1.9686,1.5015 -23.0517,9.6019 -52.1427,20.0338 -26.8609,9.6322 -48.9447,17.6233 -49.0753,17.7581 -0.1305,0.1348 -2.0076,6.1641 -4.1713,13.3985 l -3.934,13.1535 29.9471,40.3465 c 16.4709,22.1906 31.0208,42.5966 32.3332,45.3466 3.5869,7.5163 3.3514,16.2879 -0.6524,24.3002 -3.2354,6.4746 -6.7492,10.0405 -13.0729,13.2666 -2.814,1.4356 -17.4838,4.0036 -53.9961,9.4522 -27.5729,4.1145 -50.7151,7.481 -51.4273,7.481 -0.7122,0 -4.2731,5.6141 -7.9132,12.4757 l -6.6183,12.4758 20.6945,43.7742 c 11.382,24.0759 21.5263,45.9166 22.5429,48.535 4.0899,10.5339 1.5644,22.1537 -6.5864,30.3045 -9.4257,9.4257 -10.0589,9.4842 -69.5652,6.4283 -21.175,-1.0874 -41.65,-1.9665 -45.5,-1.9535 l -7,0.024 -7.807,9.5349 c -4.2938,5.2442 -8.0264,10.1067 -8.2946,10.8056 -0.2682,0.699 4.9947,23.0564 11.6953,49.6833 13.3209,52.9348 14.0287,57.4969 10.2344,65.9634 -2.9486,6.5796 -7.668,11.4791 -14.0774,14.615 -9.4692,4.6328 -12.3513,4.2178 -67.201,-9.6773 -43.5437,-11.031 -48.6722,-12.133 -50.6414,-10.8813 -1.2052,0.7661 -6.06,4.5428 -10.7885,8.3928 l -8.5974,7 0.01,7 c 0,3.85 0.8907,24.325 1.9697,45.5 3.0367,59.5962 2.986,60.1444 -6.4348,69.5652 -5.8968,5.8968 -12.1097,8.4468 -20.4933,8.4111 -6.8962,-0.029 -6.2686,0.2336 -59.3275,-24.8607 l -42.7555,-20.2213 -12.3023,6.5263 -12.3023,6.5263 -7.6868,51.5559 c -5.583,37.446 -8.2225,52.606 -9.6443,55.393 -3.2123,6.2966 -6.7861,9.8147 -13.253,13.0462 -8.0091,4.0022 -16.7817,4.2388 -24.3002,0.6554 -2.75,-1.3107 -23.1422,-15.8645 -45.3161,-32.3419 l -40.3161,-29.959 -13.1839,3.9674 c -7.2511,2.1821 -13.3,4.069 -13.4419,4.1931 -0.1419,0.1241 -7.9005,21.5596 -17.2413,47.6343 -9.3408,26.0748 -17.7747,48.92 -18.742,50.7672 -0.9673,1.8472 -3.6962,5.0759 -6.0642,7.1749 -10.7728,9.5491 -28.4023,9.2612 -38.7201,-0.6322 -1.6641,-1.5957 -17.8489,-19.2615 -35.9662,-39.2575 l -32.9405,-36.3563 -4.0339,0.5522 c -2.2186,0.3037 -8.1842,0.8652 -13.2568,1.2477 -6.5781,0.4961 -9.6187,1.1569 -10.6028,2.3041 -0.7589,0.8847 -13.1655,21.288 -27.5701,45.3406 -17.7402,29.6222 -27.2341,44.5281 -29.4256,46.1997 -5.8808,4.4855 -11.7179,6.5244 -18.6785,6.5244 -4.3939,0 -7.9488,-0.6572 -10.9716,-2.0284 z M 1059,1766.9969 c 82.4134,-4.1584 157.6968,-19.9851 233,-48.9832 18.4088,-7.0889 46.5732,-19.2499 49.4443,-21.3493 1.3492,-0.9866 3.9019,-15.1788 12.6249,-70.19 6.0136,-37.9244 11.4377,-70.5331 12.0537,-72.4639 1.902,-5.9624 7.6894,-16.2843 11.8487,-21.1326 5.4146,-6.3113 16.1148,-13.4128 24.7181,-16.4048 13.9552,-4.8531 14.4119,-4.8157 91.8103,7.5185 l 70,11.1553 5.841,-6.3235 c 15.8805,-17.1923 48.2044,-56.3005 49.4853,-59.8716 0.1948,-0.543 -63.2869,-1.0311 -157.5,-1.2109 -146.5327,-0.2795 -158.2914,-0.4262 -164.3263,-2.0492 -18.1541,-4.8824 -32.2823,-12.8554 -44.5416,-25.136 -24.1688,-24.2109 -38.8941,-61.3498 -54.9363,-138.5557 -15.6613,-75.3724 -23.0331,-101.5165 -36.6401,-129.9447 -16.7377,-34.9686 -40.0643,-56.7775 -69.9331,-65.383 C 1073.715,1101.419 1075.6411,1101.5 969,1101.5 h -99.5 v 67.5 67.5 l 84.11929,0.2557 84.11931,0.2556 2.6307,2.6307 2.6307,2.6307 v 109.7869 109.7869 l -2.5889,3.0768 -2.5889,3.0767 H 732.82777 c -187.78543,0 -304.86634,0.3577 -304.6611,0.9308 1.28296,3.5826 33.49515,42.5666 49.49237,59.8969 l 5.84096,6.3278 69.86067,-11.0778 c 38.42337,-6.0927 71.72337,-11.0699 74,-11.0603 6.92559,0.029 17.36755,2.7123 25.18273,6.4713 12.85773,6.1843 24.76369,20.196 29.33374,34.5218 0.61593,1.9308 6.04006,34.5395 12.05363,72.4639 8.72299,55.0112 11.27571,69.2034 12.62497,70.19 2.86581,2.0956 31.0175,14.2532 49.44426,21.3532 96.16987,37.0548 201.59248,54.0962 303,48.9793 z m -475.4601,-61.5185 c 9.84919,-2.5145 18.1451,-7.1849 25.97684,-14.6243 23.74487,-22.5553 24.24313,-59.2879 1.11601,-82.2749 -11.8879,-11.8159 -24.22191,-16.9658 -40.63275,-16.9658 -16.84282,0 -30.36265,5.7723 -41.8541,17.8699 -22.01741,23.1786 -21.65218,58.0309 0.84387,80.5269 7.30499,7.305 17.4767,13.1839 26.65518,15.4058 7.84843,1.8999 20.58585,1.9284 27.89495,0.062 z m 908.357,-0.016 c 9.6176,-2.2671 19.64,-7.979 27.1133,-15.4524 22.1162,-22.1161 22.8366,-57.025 1.6455,-79.7357 -11.9123,-12.7667 -25.0579,-18.5717 -42.1557,-18.6159 -5.5,-0.014 -12.025,0.5428 -14.5,1.2378 -22.0124,6.1817 -38.2613,23.6422 -42.6022,45.7791 -5.7328,29.235 13.2683,59.0028 42.6022,66.7418 7.2278,1.9069 19.912,1.9275 27.8969,0.045 z M 541,995 V 753 h -63 c -34.65,0 -63,0.22928 -63,0.50952 0,0.28024 4.454,9.40904 9.89777,20.28622 5.44378,10.87719 10.6311,22.2354 11.52738,25.24048 6.02092,20.18711 0.26669,41.57702 -15.3246,56.96541 l -7.60055,7.50164 -62.63518,31.86838 c -34.44935,17.52762 -63.12624,32.17188 -63.72641,32.54281 -1.68078,1.03878 -4.98062,36.41275 -6.32799,67.83554 -3.27069,76.2777 7.25447,163.572 28.27391,234.5 l 2.00036,6.75 H 426.04235 541 Z m 1078.2658,236.1689 c 26.7162,-8.0428 45.5959,-26.8275 54.6668,-54.3917 5.4655,-16.6082 6.258,-23.2718 6.7913,-57.1026 0.4953,-31.4189 0.5311,-31.8596 2.8015,-34.5 l 2.2998,-2.6746 39.9387,-0.2825 39.9387,-0.2825 0.6523,-9.7175 c 1.5157,-22.5785 1.843,-58.9237 0.7315,-81.2175 -1.0285,-20.6295 -4.5995,-61.84645 -5.4303,-62.67724 -0.1653,-0.16526 -27.9863,-14.41129 -61.8246,-31.65785 -33.8383,-17.24656 -63.5499,-32.75112 -66.0258,-34.45458 -19.591,-13.47895 -28.9877,-40.17106 -22.2526,-63.21033 0.8843,-3.025 15.9999,-33.76007 33.5902,-68.30016 l 31.9824,-62.80016 -4.1384,-7.54047 C 1649.4261,617.42964 1614.1873,568.21459 1578.2156,528 1536.7512,481.64468 1487.9989,439.40786 1435.3401,404.21901 1354.8219,350.41333 1255.7848,309.88063 1164.6517,293.435 l -3.8482,-0.69445 -51.6518,51.44775 c -55.2405,55.02241 -55.5005,55.24408 -69.6517,59.39369 -7.1019,2.08252 -22.7372,2.34237 -29.5,0.49026 -2.475,-0.67782 -7.875,-2.82549 -12,-4.77259 -7.19316,-3.39535 -9.61531,-5.64931 -59.20361,-55.09264 l -51.70361,-51.55246 -13.79639,2.80774 C 803.60822,309.64474 730.46372,336.37372 669.5,369.935 c -49.08393,27.02132 -88.31962,54.17533 -131.5,91.00774 -13.34829,11.38595 -62,58.63995 -62,60.2188 0,0.44934 183.9375,0.94638 408.75,1.10454 451.0561,0.31731 411.6196,-0.24616 441.0535,6.30186 57.2418,12.73433 113.7359,46.54067 152.5137,91.26502 67.0141,77.29058 82.8186,173.08808 42.0898,255.12321 -12.4887,25.15456 -26.347,44.0848 -48.3637,66.06408 -16.2576,16.22993 -30.4202,27.71675 -50.5433,40.99404 -8.25,5.44338 -15.8257,10.48244 -16.8349,11.19793 -1.6881,1.1969 -1.3149,1.7227 4.6696,6.57821 16.7268,13.57117 41.2942,42.84427 56.9543,67.86327 9.2705,14.8107 23.5866,44.1056 29.2464,59.8463 2.5709,7.15 6.8388,21.5993 9.4842,32.1096 5.067,20.1311 8.0603,27.4401 15.5807,38.0449 11.5876,16.3401 32.7892,29.5316 55.3997,34.4692 11.5145,2.5146 33.3417,2.0329 43.2658,-0.9548 z m -478.736,-344.42857 c 47.369,-8.80018 76.4702,-33.58792 76.4702,-65.13557 0,-14.59467 -5.3188,-26.89386 -16.5,-38.1545 -12.1506,-12.237 -26.505,-19.89118 -46.5,-24.79518 C 1132.5717,753.39953 1135.6121,753.5 998,753.5 H 869.5 l -0.25901,66.5 c -0.14245,36.575 -0.0374,67.07982 0.23339,67.78849 0.39918,1.04457 25.24756,1.2261 131.25902,0.95894 117.2273,-0.29542 131.7015,-0.50324 139.7964,-2.0071 z M 302.5399,841.47838 c 24.5587,-6.26986 42.18473,-27.04815 44.16326,-52.06149 2.24173,-28.34071 -17.968,-54.98444 -46.20316,-60.91249 -8.83494,-1.85492 -14.18904,-1.85328 -22.97131,0.007 -17.59527,3.72715 -32.72036,15.46465 -40.40493,31.35536 -16.05078,33.19096 2.06409,72.19991 37.87624,81.56352 7.30297,1.90947 20.16098,1.93191 27.5399,0.0481 z m 1470,0.013 c 24.3073,-6.15275 41.9977,-26.88908 44.0938,-51.68579 2.4317,-28.7673 -17.4912,-55.22078 -46.1624,-61.29412 -8.7823,-1.86032 -14.1364,-1.86196 -22.9713,-0.007 -28.3116,5.94409 -48.45,32.51968 -46.1991,60.96659 1.957,24.73268 19.4735,45.55501 43.6991,51.94635 7.2639,1.9164 20.1248,1.95097 27.5399,0.074 z M 1042.7228,305.98973 c 21.7496,-7.53192 36.9735,-27.26574 38.9349,-50.46892 2.4065,-28.4686 -17.6523,-54.96509 -46.1864,-61.00937 -8.7823,-1.86032 -14.1364,-1.86196 -22.9713,-0.007 -28.3116,5.94409 -48.44996,32.51968 -46.19907,60.96659 2.07389,26.21007 21.58611,47.8516 47.69907,52.90435 5.8466,1.13129 22.5806,-0.25857 28.7228,-2.38561 z"/></g></svg>