<?xml version="1.0" encoding="UTF-8" standalone="no"?>
<!-- Uploaded to: SVG Repo, www.svgrepo.com, Generator: SVG Repo Mixer Tools -->

<svg
   width="700.00555"
   height="699.9834"
   viewBox="0 0 168.00133 167.99602"
   version="1.1"
   id="svg2"
   xml:space="preserve"
   xmlns="http://www.w3.org/2000/svg"
   xmlns:svg="http://www.w3.org/2000/svg"><defs
     id="defs2" /><path
     stroke-linecap="round"
     d="M 142.57087,134.72222 A 77.648559,78.381137 0 0 1 52.760865,155.06954 77.648559,78.381137 0 0 1 6.8118049,74.559407 77.648559,78.381137 0 0 1 69.297909,6.3254503 m 29.412022,0.06355 a 77.648559,78.381137 0 0 1 52.528189,37.7182747 77.648559,78.381137 0 0 1 6.20664,64.770365"
     id="path1"
     style="fill:none;stroke:#cccccc;stroke-width:12.6509;stroke-opacity:1" /><path
     id="XMLID_510_"
     d="m 52.696313,132.29019 h 62.608697 c 2.59325,0 4.69565,-2.1024 4.69565,-4.69565 V 74.37715 c 0,-2.593253 -2.1024,-4.695653 -4.69565,-4.695653 h -4.69565 V 55.594541 c 0,-14.672035 -11.936659,-26.608696 -26.608699,-26.608696 -14.672035,0 -26.608696,11.936661 -26.608696,26.608696 v 14.086956 h -4.695652 c -2.593252,0 -4.695652,2.1024 -4.695652,4.695653 v 53.21739 c 0,2.59325 2.1024,4.69565 4.695652,4.69565 z m 35.999998,-29.74351 v 6.26525 c 0,2.59326 -2.102398,4.69566 -4.69565,4.69566 -2.593252,0 -4.695652,-2.1024 -4.695652,-4.69566 v -6.26525 c -1.899548,-1.42904 -3.130435,-3.701423 -3.130435,-6.256493 0,-4.3153 3.510783,-7.82608 7.826087,-7.82608 4.3153,0 7.82609,3.51078 7.82609,7.82608 0,2.55507 -1.23089,4.827453 -3.13044,6.256493 z M 66.78327,55.594541 c 0,-9.49367 7.723722,-17.217392 17.217391,-17.217392 9.49367,0 17.217389,7.723722 17.217389,17.217392 V 69.681497 H 66.78327 Z"
     style="fill:#cccccc;fill-opacity:1;stroke-width:0.313043" /></svg>
