<svg xmlns="http://www.w3.org/2000/svg" xmlns:svg="http://www.w3.org/2000/svg" id="svg1" width="150" height="150" version="1.1" viewBox="0 0 150 150"><path id="path2" d="M 75,2.5964711e-7 A 75,75 0 0 0 2.5964712e-7,75 75,75 0 0 0 75,150 75,75 0 0 0 150,75 75,75 0 0 0 75,2.5964711e-7 Z M 74.93994,13.741699 c 2.364582,-0.02029 4.778972,0.356767 7.019532,0.930176 22.565268,5.774906 26.850528,37.051009 7.20117,49.094238 -3.19057,1.955535 -6.84017,3.262281 -10.56006,3.725097 -8.27131,1.029096 -16.831113,-1.686121 -22.778317,-7.6333 -8.643133,-8.643097 -10.379063,-23.307447 -3.621094,-33.577148 2.015247,-3.062458 4.427556,-5.644631 7.438477,-7.747559 3.941509,-2.752893 8.255967,-4.00648 12.960937,-4.631836 0.768466,-0.10214 1.551162,-0.152905 2.339355,-0.159668 z m 14.638182,58.35498 c 1.64186,0.04219 3.2668,0.141763 4.86182,0.33252 14.508708,1.735178 25.897828,12.994793 27.637208,27.530273 0.60727,5.074838 0.23779,11.295708 -3.65918,15.079108 -5.28166,5.12771 -14.07104,4.60107 -20.857908,4.60107 0.26698,-1.98262 1.05978,-3.96991 0.91552,-6 -0.51518,-7.25046 -6.18729,-14.058128 -13.63623,-14.838868 -2.0048,-0.21011 -4.04627,-0.16351 -6,0.37793 -1.19555,0.33133 -2.611062,1.313968 -3.839354,1.313968 -2.694241,0 -5.213154,-2.034948 -8.160645,-1.848638 -8.203314,0.51852 -14.88105,6.914838 -15.309081,15.235848 -0.105074,2.0426 0.735102,3.99804 0.909668,6 -6.970551,-1.20165 -14.817,0.64664 -20.636719,-4.60401 -3.373858,-3.04395 -4.082796,-7.89621 -4.08252,-12.19629 6.72e-4,-10.478368 5.75237,-20.629078 14.639649,-26.143067 9.787695,-6.072625 21.399869,-4.576172 32.399413,-4.576172 4.821209,0 9.892799,-0.390244 14.818359,-0.263672 z M 67.227539,103.30078 c 1.599449,-0.007 3.21396,0.33984 4.652344,1.00928 0.905967,0.42164 2.115242,1.65527 3.120117,1.65527 1.236546,0 2.867242,-1.60171 4.079592,-2.03467 4.02633,-1.43789 8.76766,-0.32592 11.7378,2.75831 0.92217,0.95758 1.65388,2.11006 2.12694,3.35155 3.24671,8.52051 -4.4532,14.10945 -9.78369,19.43995 -1.88979,1.88978 -4.73337,6.09631 -7.43994,6.63721 -3.391065,0.67769 -7.116096,-4.75151 -9.188964,-6.89502 -2.94281,-3.04313 -7.076472,-6.0055 -8.986817,-9.82325 -3.383211,-6.76121 0.527806,-14.79227 8.094727,-15.97412 0.522571,-0.0816 1.054741,-0.12237 1.587891,-0.12451 z" style="font-variation-settings:'wght' 680;fill:#ccc;fill-opacity:1;stroke:red;stroke-width:0"/></svg>