<?xml version="1.0" encoding="UTF-8" standalone="no"?>
<!-- Created with Inkscape (http://www.inkscape.org/) -->

<svg
   version="1.1"
   id="svg1"
   width="682.66669"
   height="682.66669"
   viewBox="0 0 682.66669 682.66669"
   xmlns="http://www.w3.org/2000/svg"
   xmlns:svg="http://www.w3.org/2000/svg">
  <defs
     id="defs1" />
  <g
     id="g1">
    <path
       style="fill:#a0e8f8;fill-opacity:1"
       d="m 359.51304,635.82052 c -27.69986,-3.55722 -57.18954,-15.15695 -72.41994,-28.4863 -4.34205,-3.80008 -8.42687,-9.0865 -11,-14.23579 l -4.09309,-8.19101 v -36.81674 -36.81675 l -9.82131,-8.19605 c -12.36967,-10.32271 -26.83369,-27.60388 -49.57884,-59.23529 -9.81761,-13.65324 -24.19263,-32.85325 -31.94447,-42.66666 -21.31128,-26.97896 -25.87722,-38.37069 -21.46403,-53.55151 4.51479,-15.53036 15.92525,-24.98357 30.09117,-24.92962 15.60586,0.0594 34.02414,9.7437 54.6457,28.73252 8.7364,8.04467 11.35152,9.81236 12.22016,8.26019 1.54381,-2.75863 4.76162,-22.2714 5.77522,-35.02083 0.4664,-5.86667 2.90728,-47.56667 5.42416,-92.66667 2.51689,-45.1 5.11327,-83.81709 5.76975,-86.03797 5.37161,-18.17242 19.60699,-29.01285 38.21582,-29.10185 11.1478,-0.0533 19.19927,3.09464 26.44349,10.33886 10.84513,10.84513 12.88985,19.85137 12.88985,56.77523 v 27.84302 l 10.0525,-0.0394 c 11.70721,-0.0459 20.958,3.65631 28.44968,11.38576 4.45319,4.59453 4.48761,4.60408 9.81764,2.72354 12.67976,-4.47368 27.65982,-1.2425 38.20828,8.24147 l 6.54357,5.88323 8.31376,-2.12989 c 18.64891,-4.77763 36.81383,4.03768 44.95265,21.81521 2.87841,6.28727 3.60917,11.15288 5.72048,38.08877 1.33129,16.98439 3.42122,39.28072 4.64429,49.54738 3.29525,27.661 2.1187,90.08036 -2.07341,110.00001 -2.67643,12.71757 -3.02341,19.25183 -3.78788,71.33333 l -0.84156,57.33334 -3.57188,6.76863 c -11.03514,20.9113 -45.1005,38.29906 -84.42812,43.09409 -13.83737,1.68712 -39.84821,1.66646 -53.15364,-0.0422 z m 43.5968,-27.83099 c 7.21041,-0.70126 18.31041,-2.50513 24.66667,-4.00859 14.81731,-3.50478 34.49004,-12.98791 40.02796,-19.29525 l 4.19554,-4.77846 v -32.08454 -32.08454 l -4.33333,2.90158 c -36.26866,24.28536 -109.33019,26.40834 -156.85445,4.5578 -5.41994,-2.49197 -10.06994,-4.53085 -10.33333,-4.53085 -0.26339,0 -0.47889,13.49827 -0.47889,29.99616 V 578.659 l 4.67797,5.17796 c 8.79346,9.73331 32.90295,19.7451 54.6869,22.70946 21.61051,2.94077 26.63997,3.10669 43.74496,1.44311 z m 28.22351,-93.88081 c 13.91019,-4.18033 25.42179,-10.24959 34.35519,-18.11309 5.81644,-5.11984 6.31364,-6.04344 6.33903,-11.7756 0.0151,-3.42101 1.52546,-13.42002 3.35623,-22.22002 5.61157,-26.97325 6.85722,-53.62058 4.18274,-89.47826 -1.25207,-16.78696 -3.14669,-42.22174 -4.21028,-56.52174 -3.24418,-43.61825 -3.30925,-44.07422 -6.78617,-47.55114 -4.17098,-4.17098 -10.3691,-4.10439 -14.63068,0.1572 l -3.27273,3.27273 -0.005,35.0606 c -0.005,32.39958 -0.20216,35.38399 -2.60291,39.32132 -5.32203,8.72838 -16.80086,8.71628 -23.2722,-0.0245 -2.66953,-3.60573 -2.79846,-5.49566 -3.06956,-44.99357 -0.18442,-26.87076 -0.7931,-42.18293 -1.74773,-43.96667 -2.93381,-5.48186 -10.97111,-6.25995 -16.30262,-1.57825 -2.00687,1.76227 -2.33396,4.58509 -2.33778,20.17562 -0.002,9.96968 -0.4024,27.72281 -0.88881,39.4514 -0.86984,20.97447 -0.94473,21.38507 -4.55966,25 -6.49553,6.49553 -18.10819,4.47094 -22.39103,-3.90372 -1.00414,-1.9635 -1.48939,-16.64616 -1.48939,-45.06622 0,-34.38867 -0.35934,-42.84875 -1.95069,-45.92608 -3.31056,-6.40192 -10.85438,-7.4115 -16.10992,-2.15597 l -3.27272,3.27273 v 40.79349 c 0,33.58377 -0.35213,41.47443 -1.99239,44.64633 -4.6064,8.90781 -14.84719,10.8004 -22.31991,4.12492 l -4.35437,-3.88982 -0.66667,-90.63788 c -0.63807,-86.7499 -0.77562,-90.75823 -3.20665,-93.44352 -5.14609,-5.68433 -15.65654,-2.36537 -17.39765,5.49378 -0.36967,1.66865 -2.48886,36.63391 -4.70931,77.70058 -5.91508,109.39791 -7.27809,123.66815 -13.33442,139.60713 -7.01949,18.47378 -21.72926,25.36666 -37.82951,17.72659 -2.77039,-1.31464 -10.84629,-7.58572 -17.94644,-13.93574 -15.08599,-13.49216 -23.41342,-19.41992 -31.08275,-22.12582 -6.53225,-2.30471 -9.15994,-0.95499 -9.15994,4.70504 0,4.35389 2.76193,8.55925 20.59359,31.35614 7.45694,9.53333 21.91732,28.94837 32.13417,43.14454 10.21686,14.19616 23.35912,30.9234 29.20502,37.17164 18.50213,19.77551 40.91724,34.6217 63.94255,42.35104 17.4986,5.87408 29.51758,7.24756 59.45801,6.79461 25.19215,-0.38112 28.27337,-0.69602 39.33334,-4.01979 z M 212.00001,202.66667 c -5.78181,-5.7818 -4.17584,-8.45931 18.98484,-31.65195 22.8286,-22.86009 24.89554,-24.15127 31.38515,-19.60578 2.16258,1.51473 2.96334,3.42095 2.96334,7.05425 0,4.65687 -1.36333,6.33239 -21.09409,25.9244 -18.35289,18.22383 -21.64498,20.94575 -25.33333,20.94575 -2.46147,0 -5.35755,-1.1183 -6.90591,-2.66667 z m 163.05085,-16.38418 c -16.50662,-16.50661 -19.05085,-19.61583 -19.05085,-23.28139 0,-5.09396 4.36919,-9.66776 9.23527,-9.66776 5.14443,0 42.76473,37.8126 42.76473,42.98333 0,4.97052 -4.31501,9.01667 -9.61582,9.01667 -3.73239,0 -6.72962,-2.44714 -23.33333,-19.05085 z m -2.51791,-40.63624 c -2.00262,-1.33718 -4.53294,-6.33455 -4.53294,-8.95253 0,-1.18154 1.47273,-3.62099 3.27273,-5.42099 C 374.51277,128.0327 374.79313,128 399.33335,128 c 24.54021,0 24.82057,0.0327 28.0606,3.27273 1.8,1.8 3.27273,4.23945 3.27273,5.42099 0,2.61798 -2.53032,7.61535 -4.53294,8.95253 -0.80688,0.53877 -12.86706,0.97959 -26.80039,0.97959 -13.93334,0 -25.99352,-0.44082 -26.8004,-0.97959 z M 193.98443,139.9828 c -3.44056,-3.80179 -3.14005,-10.48914 0.60773,-13.52391 2.70322,-2.18893 5.70878,-2.45889 27.37575,-2.45889 22.60433,0 24.58955,0.19697 27.85229,2.76344 4.29826,3.38102 4.68317,9.39987 0.84647,13.23656 -2.48287,2.48287 -4.44444,2.66667 -28.46001,2.66667 -24.15515,0 -25.94762,-0.17046 -28.22223,-2.68387 z m 168.68225,-18.27538 c -4.12249,-1.48832 -6.66667,-4.91028 -6.66667,-8.96676 0,-3.62988 2.86076,-7.0212 21.75803,-25.793355 23.18177,-23.028272 25.43123,-24.385208 31.32389,-18.895363 1.80853,1.684905 2.91808,4.315042 2.91808,6.917184 0,3.643984 -2.7739,6.968189 -21,25.166064 -20.28909,20.25768 -24.04776,23.11943 -28.33333,21.57223 z M 232.34893,98.201678 C 211.59982,77.325916 210.31034,74.901785 216.60607,68.606063 c 6.37085,-6.370849 8.8405,-5.057804 29.67642,15.77812 17.37083,17.370827 19.05085,19.469067 19.05085,23.793347 0,5.91185 -3.33853,9.15581 -9.42273,9.15581 -4.07785,0 -6.50467,-1.97053 -23.56168,-19.131662 z"
       id="path1" />
  </g>
</svg>
