<?xml version="1.0" encoding="UTF-8" standalone="no"?>
<!-- Created with Inkscape (http://www.inkscape.org/) -->

<svg
   version="1.1"
   id="svg1"
   width="682.66669"
   height="682.66669"
   viewBox="0 0 682.66669 682.66669"
   xmlns="http://www.w3.org/2000/svg"
   xmlns:svg="http://www.w3.org/2000/svg">
  <defs
     id="defs1" />
  <g
     id="g1">
    <path
       style="fill:#a0e8f8;fill-opacity:1"
       d="M 138.46303,674.61418 C 79.082017,667.68302 27.210386,622.39858 11.952907,564.16961 10.487326,558.57633 8.7032893,548.90002 7.9883805,542.66668 6.2431675,527.45006 6.2431675,155.21662 7.9883805,140 11.919601,105.72345 27.582754,73.786921 52.204488,49.845168 76.571454,26.151148 106.64385,11.81404 140,7.9883805 c 15.21662,-1.745213 387.45006,-1.745213 402.66668,0 34.27656,3.9312205 66.21309,19.5943735 90.15484,44.2161075 23.69402,24.366966 38.03113,54.439362 41.85679,87.795512 1.74521,15.21662 1.74521,387.45006 0,402.66668 -3.82566,33.35616 -18.16277,63.42855 -41.85679,87.79552 -23.94175,24.62173 -55.87828,40.28489 -90.15484,44.21611 -13.51591,1.55015 -390.88659,1.49028 -404.20365,-0.0641 z M 540.22836,469.79336 c 1.97591,-1.78817 2.43832,-4.23362 2.43832,-12.89501 0,-17.39495 14.66994,-15.565 -124.77808,-15.565 -107.64475,0 -120.5862,0.22142 -122.46002,2.09523 -1.57048,1.57048 -2.09524,4.88601 -2.09524,13.2381 0,8.35209 0.52476,11.66762 2.09524,13.2381 1.87376,1.87375 14.79421,2.09523 122.22835,2.09523 109.91403,0 120.34053,-0.1877 122.57143,-2.20665 z m -317.90058,-75.4544 c 46.31913,-46.31035 59.00556,-59.71107 59.00556,-62.32778 0,-4.98323 -116.46216,-121.34451 -121.44971,-121.34451 -4.49809,0 -19.88363,15.61185 -19.88363,20.1761 0,2.26334 12.91068,16.00166 48.97579,52.11541 l 48.97578,49.04183 -48.97578,49.04183 C 151.95861,418.10894 140,430.86024 140,433.26407 c 0,4.40768 15.68991,20.06928 20.10556,20.06928 2.46248,0 17.05131,-13.83203 62.22222,-58.99439 z"
       id="path1" />
  </g>
</svg>
