<?xml version="1.0" encoding="UTF-8" standalone="no"?>
<!-- Created with Inkscape (http://www.inkscape.org/) -->

<svg
   version="1.1"
   id="svg1"
   width="462.77991"
   height="490.13828"
   viewBox="0 0 462.77991 490.13828"
   xmlns="http://www.w3.org/2000/svg"
   xmlns:svg="http://www.w3.org/2000/svg">
  <defs
     id="defs1" />
  <path
     style="fill:#cccccc;fill-opacity:1;stroke:none"
     d="M 89.177719,0.43789953 C 73.070129,3.3420745 69.308441,17.647403 63.977875,30.973392 52.768234,58.996585 41.854843,87.206089 30.028026,114.97339 c -4.304817,10.10696 -15.112484,29.60989 -5.317127,39.46759 6.653733,6.69608 17.413819,5.16455 22.497681,-2.48303 5.708733,-8.58756 5.716995,-24.63986 13.468361,-31.38117 3.362533,-2.92437 10.366539,-1.60339 14.500778,-1.60339 h 34.000001 c 3.99495,0 10.28668,-1.15985 13.58102,1.60339 10.8098,9.06711 7.32531,43.11792 29.41898,37.86264 19.74335,-4.69622 9.12997,-26.64068 4.39969,-38.46603 C 144.03024,88.606482 130.62376,57.549381 118.6021,25.973392 113.29778,12.041141 106.85484,-2.7492342 89.177719,0.43789953 m 65.000001,22.53549247 10,27 c 26.85939,-3.966766 51.03397,-13.491577 79,-10.830231 95.61664,9.099274 176.29715,79.541869 188.71451,176.830229 2.95227,23.13062 1.78146,47.29971 -3.59879,70 -2.86996,12.10895 -8.96487,23.89679 -11.11572,36 l 29,5 c 11.09711,-21.06015 14.47897,-47.61343 16.08951,-71 C 471.31477,124.59357 359.31578,9.9733915 229.17772,9.9733915 c -24.93846,0 -51.9249,2.7714845 -75,13.0000005 m -62.000001,12 c 6.54681,19.35202 19.961141,40.655975 22.000001,61 -14.179341,0 -32.406281,3.01807 -46.000001,-1 l 15.42361,-41 8.57639,-19 m 180.000001,51 27.74152,49.999998 9.53317,18.39661 16.72531,-0.82099 36,-4.57562 c -20.17432,-32.39587 -54.68964,-51.709318 -90,-62.999998 m -80,71.999998 h 78 l -27.33334,-50 -11.66974,-13.793208 -11.96837,13.793208 -27.02855,50 m -111.000001,25 c -8.759888,37.86481 -18.488281,80.01553 1,117 14.01141,-3.45178 28.724841,-4.60873 43.000001,-6.57483 4.13817,-0.56995 13.10237,0.32782 16.35725,-2.45294 3.67914,-3.14325 -1.89547,-20.2962 -2.2716,-24.97223 -2.07463,-25.79132 0.62193,-49.50555 3.91435,-75 l -62.000001,-8 m 238.000001,8 c 2.03534,25.57526 6.42459,49.07681 3.83099,75 -0.45816,4.57925 -5.755,21.92502 -2.18826,24.97223 3.02118,2.58111 11.49106,1.92361 15.35727,2.45138 14.61786,1.99549 29.63837,3.03833 44,6.57639 17.99335,-38.47491 10.04443,-77.90524 1,-117 l -62,8 m -313.0000009,-4 c -8.015667,41.33276 -9.249254,81.08151 2.427467,122 29.1297919,102.07892 127.6748639,170.50388 232.5725339,166 0.56201,-12.29831 8.35049,-20.44641 15,-30 -30.64836,0.0203 -58.22832,0.44354 -88,-9.02856 C 101.39147,414.69629 49.380348,355.83405 33.828953,287.97339 c -4.321823,-18.85889 -6.319645,-39.68439 -4.48148,-59 1.079102,-11.33932 4.342861,-22.67761 4.830246,-34 l -27.9999999,-8 m 174.0000009,102 c 32.60631,-4.12085 69.39374,-4.12085 102,0 4.8595,-23.55634 7.3934,-47.04288 4.28165,-71 -0.70496,-5.42746 -0.43528,-19.33282 -5.02008,-22.97223 -3.53965,-2.80975 -11.22257,-0.58191 -15.26157,-0.19754 -12.46561,1.18628 -25.47845,0.16977 -38,0.16977 -11.16817,0 -22.91965,1.03046 -34,-0.42438 -3.5903,-0.4714 -11.12019,-2.15295 -13.86034,1.02777 -3.87501,4.49805 -3.59892,15.70084 -4.4105,21.39661 -3.45623,24.25589 -0.646,48.16547 4.27084,72 m 12,36 c 9.68216,23.25568 23.39046,44.60205 38,65 h 2 c 13.36499,-21.46155 28.18958,-41.43628 38,-65 -24.56418,-3.10446 -53.43584,-3.10443 -78,0 m -91,8 c 2.37868,9.14716 11.53651,16.539 18,23 18.25737,18.25034 44.82944,36.1351 71,40 -12.68915,-22.79221 -27.54391,-44.00394 -36,-69 l -53,6 m 218,23 c -9.07602,0 -24.82806,-3.03107 -32.98456,1.17902 -8.37842,4.32464 -8.40082,16.85199 0.0247,21.05246 8.42016,4.19784 21.77392,1.76852 30.95986,1.76852 l -3.08875,33 0.54554,16 20.54321,21 c -10.4751,4.36115 -19.88528,9.81064 -31,12.62576 -7.16037,1.81357 -17.73056,1.36066 -23.98148,5.23227 -9.76007,6.04505 -6.11612,20.46924 4.98148,21.95215 16.86115,2.25308 38.33466,-6.67804 53,-14.05786 5.52133,-2.77844 12.91565,-9.75247 19,-10.41049 5.67062,-0.61331 13.93738,6.03143 19,8.34952 13.54343,6.20132 33.71042,15.03173 49,12.93981 10.3736,-1.41931 14.96085,-15.31991 5.81174,-21.62191 -5.48981,-3.78141 -14.4671,-3.26169 -20.81174,-5.02082 -11.52966,-3.19674 -22.42813,-10.92566 -34,-12.98843 8.80188,-13.31979 17.97922,-25.34079 24.69135,-40 3.30059,-7.20847 4.53677,-18.52768 9.24615,-24.6821 5.66721,-7.40613 33.21048,1.34406 24.91434,-19.30246 -3.72855,-9.27923 -15.84497,-7.01544 -23.85184,-7.01544 h -68 c 0.52466,-6.64783 2.86826,-15.56421 0.14197,-21.95987 -3.43512,-8.05853 -15.24423,-8.91202 -20.13349,-1.85187 -4.11978,5.94901 -3.70791,16.81272 -4.00848,23.81174 m 66,24 c -3.74768,16.19943 -12.29153,32.0672 -22.60107,45 -7.61152,9.54825 -19.41358,6.17044 -24.08567,-6.00076 -3.85659,-10.04685 1.84842,-28.37705 2.68674,-38.99924 z"
     id="path1" />
</svg>
